<svg width="40" height="39" viewBox="0 0 40 39" fill="none" xmlns="http://www.w3.org/2000/svg">
<path d="M36.0651 2.99939C32.19 1.91117 17.139 16.7207 10.098 24.2615C12.7868 25.3687 13.99 27.7936 14.2555 28.8677C23.14 20.6983 39.9403 4.08761 36.0651 2.99939Z" stroke="#606BE4" stroke-width="2.22785" stroke-linecap="round"/>
<path d="M15.3027 19.4583L20.1229 24.1302" stroke="#606BE4" stroke-width="2.22785"/>
<path d="M12.7073 26.2863C9.37025 24.13 2.84451 22.98 3.43776 35.6302" stroke="#606BE4" stroke-width="2.22785"/>
<path d="M12.2537 25.8393C14.4237 29.1085 15.5037 35.4515 2.46364 34.6704" stroke="#606BE4" stroke-width="2.22785"/>
<path d="M9.36842 17.6609L1.58203 10.1139L10.11 1.84814L17.8964 9.39516" stroke="#606BE4" stroke-width="2.22785" stroke-linecap="round" stroke-linejoin="round"/>
<path d="M6.22608 13.9124L9.36264 10.8326" stroke="#606BE4" stroke-width="2.22785" stroke-linecap="round"/>
<path d="M9.93555 17.5064L13.0721 14.4266" stroke="#606BE4" stroke-width="2.22785" stroke-linecap="round"/>
<path d="M21.6425 29.9468L29.4619 37.4618L37.9536 29.1611L30.1343 21.6461" stroke="#606BE4" stroke-width="2.22785" stroke-linecap="round" stroke-linejoin="round"/>
<path d="M25.5222 32.9781L28.6863 29.9249" stroke="#606BE4" stroke-width="2.22785" stroke-linecap="round"/>
<path d="M21.7985 29.3992L24.9627 26.346" stroke="#606BE4" stroke-width="2.22785" stroke-linecap="round"/>
</svg>
