<svg width="37" height="37" viewBox="0 0 37 37" fill="none" xmlns="http://www.w3.org/2000/svg">
<path d="M29.0651 13.1197V6.83931C29.3267 5.26921 28.8297 2.129 24.7488 2.129C20.6679 2.129 10.4917 2.129 5.91375 2.129C4.34416 1.86732 1.20499 2.44302 1.20499 6.83931C1.20499 11.2356 1.20499 24.3721 1.20499 30.3909C1.07419 31.961 1.83282 35.1012 5.91375 35.1012C9.99467 35.1012 12.0613 35.1012 12.5845 35.1012" stroke="#606BE4" stroke-width="2.22785"/>
<path d="M8.65869 9.58716H21.2154" stroke="#606BE4" stroke-width="2.22785" stroke-linecap="round"/>
<path d="M8.65869 17.4375H21.2154" stroke="#606BE4" stroke-width="2.22785" stroke-linecap="round"/>
<path d="M9.05176 24.5032H15.3301" stroke="#606BE4" stroke-width="2.22785" stroke-linecap="round"/>
<path d="M17.6859 29.9984L16.8981 29.2108C16.7086 29.4003 16.5938 29.6518 16.5748 29.919L17.6859 29.9984ZM29.8501 17.8301L30.6379 17.0425C30.429 16.8336 30.1456 16.7162 29.8501 16.7162C29.5547 16.7162 29.2713 16.8336 29.0624 17.0425L29.8501 17.8301ZM34.9513 22.9329L35.7391 23.7204C36.1739 23.2855 36.1739 22.5804 35.7391 22.1454L34.9513 22.9329ZM22.787 35.1012L22.8664 36.2123C23.1338 36.1932 23.3853 36.0783 23.5748 35.8887L22.787 35.1012ZM17.2935 35.4937L16.1824 35.4144C16.1594 35.7366 16.2774 36.053 16.5058 36.2814C16.7343 36.5099 17.0506 36.6279 17.3728 36.6048L17.2935 35.4937ZM18.4736 30.7859L30.6379 18.6176L29.0624 17.0425L16.8981 29.2108L18.4736 30.7859ZM29.0624 18.6176L34.1635 23.7204L35.7391 22.1454L30.6379 17.0425L29.0624 18.6176ZM34.1635 22.1454L21.9992 34.3137L23.5748 35.8887L35.7391 23.7204L34.1635 22.1454ZM22.7076 33.9901L17.2141 34.3826L17.3728 36.6048L22.8664 36.2123L22.7076 33.9901ZM18.4046 35.5731L18.7969 30.0777L16.5748 29.919L16.1824 35.4144L18.4046 35.5731Z" fill="#606BE4"/>
</svg>
