<svg width="40" height="33" viewBox="0 0 40 33" fill="none" xmlns="http://www.w3.org/2000/svg">
<path d="M9.79736 8.42468H19.9101" stroke="#606BE4" stroke-width="2.22785" stroke-linecap="round"/>
<path d="M9.79736 15.5815H19.9101" stroke="#606BE4" stroke-width="2.22785" stroke-linecap="round"/>
<path d="M9.79736 22.7382H15.4605" stroke="#606BE4" stroke-width="2.22785" stroke-linecap="round"/>
<path d="M33.6652 15.5814H36.9013C37.4406 15.5814 38.5193 15.8676 38.5193 17.0127C38.5193 18.1577 38.5193 24.6464 38.5193 27.7475C38.6541 29.0596 38.2766 31.6836 35.6877 31.6836C35.0871 31.6836 33.6331 31.6836 31.6427 31.6836M31.6427 31.6836C25.054 31.6836 12.5887 31.6836 5.75406 31.6836C4.54054 31.6836 2.11348 31.1827 2.11348 29.1788C2.11348 27.175 2.11348 11.8838 2.11348 4.48869C1.97865 3.53448 2.35619 1.62606 4.94505 1.62606C7.53391 1.62606 19.2377 1.62606 24.7661 1.62606C25.8448 1.50679 28.0021 1.91233 28.0021 4.48869C28.0021 7.06505 28.0021 21.0681 28.0021 27.7475C27.8673 29.0596 28.4067 31.6836 31.6427 31.6836Z" stroke="#606BE4" stroke-width="2.22785" stroke-linecap="round"/>
</svg>
