<svg width="37" height="35" viewBox="0 0 37 35" fill="none" xmlns="http://www.w3.org/2000/svg">
<path d="M18.2671 1.40446V17.7862H35.799C35.524 3.89448 23.9965 1.07682 18.2671 1.40446Z" stroke="#606BE4" stroke-width="2.22785" stroke-linejoin="round"/>
<mask id="path-2-inside-1" fill="white">
<path fill-rule="evenodd" clip-rule="evenodd" d="M15.518 5.31372V20.3823H31.3274C31.1441 28.3732 24.2901 34.7972 15.8619 34.7972C7.31842 34.7972 0.392578 28.1963 0.392578 20.0537C0.392578 12.0206 7.13334 5.48802 15.518 5.31372Z"/>
</mask>
<path d="M15.518 5.31372H17.7458C17.7458 4.71483 17.5047 4.14116 17.0769 3.72211C16.649 3.30305 16.0704 3.0739 15.4717 3.08635L15.518 5.31372ZM15.518 20.3823H13.2901C13.2901 21.6127 14.2876 22.6101 15.518 22.6101V20.3823ZM31.3274 20.3823L33.5547 20.4334C33.5684 19.8338 33.3399 19.254 32.9207 18.8251C32.5015 18.3962 31.9271 18.1544 31.3274 18.1544V20.3823ZM13.2901 5.31372V20.3823H17.7458V5.31372H13.2901ZM15.518 22.6101H31.3274V18.1544H15.518V22.6101ZM29.1002 20.3312C28.9467 27.0182 23.1755 32.5694 15.8619 32.5694V37.0251C25.4047 37.0251 33.3414 29.7281 33.5547 20.4334L29.1002 20.3312ZM15.8619 32.5694C8.44673 32.5694 2.62043 26.8662 2.62043 20.0537H-1.83527C-1.83527 29.5264 6.19011 37.0251 15.8619 37.0251V32.5694ZM2.62043 20.0537C2.62043 13.3321 8.29011 7.6923 15.5643 7.54109L15.4717 3.08635C5.97657 3.28374 -1.83527 10.7091 -1.83527 20.0537H2.62043Z" fill="#606BE4" mask="url(#path-2-inside-1)"/>
</svg>
