<svg width="112" height="50" viewBox="0 0 112 50" fill="none" xmlns="http://www.w3.org/2000/svg">
<path d="M54.512 7.884C54.128 7.368 53.654 6.984 53.09 6.732C52.526 6.468 51.938 6.336 51.326 6.336C50.618 6.336 49.964 6.48 49.364 6.768C48.776 7.056 48.266 7.446 47.834 7.938C47.402 8.418 47.066 8.982 46.826 9.63C46.586 10.266 46.466 10.932 46.466 11.628C46.466 12.372 46.586 13.068 46.826 13.716C47.066 14.352 47.396 14.91 47.816 15.39C48.248 15.858 48.758 16.23 49.346 16.506C49.946 16.782 50.606 16.92 51.326 16.92C52.106 16.92 52.802 16.77 53.414 16.47C54.026 16.158 54.56 15.714 55.016 15.138L56.15 16.092C55.574 16.86 54.878 17.424 54.062 17.784C53.258 18.144 52.346 18.324 51.326 18.324C50.414 18.324 49.562 18.156 48.77 17.82C47.978 17.484 47.288 17.022 46.7 16.434C46.124 15.834 45.668 15.126 45.332 14.31C45.008 13.494 44.846 12.6 44.846 11.628C44.846 10.692 45.002 9.816 45.314 9C45.638 8.184 46.088 7.476 46.664 6.876C47.24 6.276 47.924 5.802 48.716 5.454C49.508 5.106 50.378 4.932 51.326 4.932C52.19 4.932 53.018 5.088 53.81 5.4C54.614 5.712 55.286 6.222 55.826 6.93L54.512 7.884ZM57.8978 10.656C58.3298 10.212 58.8398 9.888 59.4278 9.684C60.0278 9.468 60.6338 9.36 61.2458 9.36C62.4938 9.36 63.3938 9.654 63.9458 10.242C64.4978 10.83 64.7738 11.724 64.7738 12.924V16.542C64.7738 16.782 64.7858 17.034 64.8098 17.298C64.8338 17.55 64.8638 17.784 64.8998 18H63.5498C63.5018 17.808 63.4718 17.598 63.4598 17.37C63.4598 17.13 63.4598 16.92 63.4598 16.74H63.4238C63.1478 17.172 62.7758 17.526 62.3078 17.802C61.8518 18.078 61.2998 18.216 60.6518 18.216C60.2198 18.216 59.8118 18.162 59.4278 18.054C59.0558 17.946 58.7258 17.79 58.4378 17.586C58.1618 17.37 57.9398 17.106 57.7718 16.794C57.6038 16.482 57.5198 16.122 57.5198 15.714C57.5198 15.018 57.6998 14.472 58.0598 14.076C58.4198 13.68 58.8638 13.386 59.3918 13.194C59.9318 13.002 60.5078 12.882 61.1198 12.834C61.7438 12.786 62.3138 12.762 62.8298 12.762H63.3698V12.51C63.3698 11.898 63.1838 11.436 62.8118 11.124C62.4518 10.812 61.9418 10.656 61.2818 10.656C60.8258 10.656 60.3758 10.734 59.9318 10.89C59.4998 11.034 59.1158 11.262 58.7798 11.574L57.8978 10.656ZM61.9658 13.95C61.0658 13.95 60.3518 14.076 59.8238 14.328C59.2958 14.58 59.0318 14.994 59.0318 15.57C59.0318 16.098 59.2058 16.476 59.5538 16.704C59.9138 16.92 60.3578 17.028 60.8858 17.028C61.2938 17.028 61.6478 16.962 61.9478 16.83C62.2598 16.686 62.5178 16.5 62.7218 16.272C62.9258 16.044 63.0818 15.78 63.1898 15.48C63.2978 15.168 63.3578 14.838 63.3698 14.49V13.95H61.9658ZM67.3398 11.574C67.3398 11.19 67.3278 10.83 67.3038 10.494C67.2798 10.158 67.2678 9.852 67.2678 9.576H68.5998C68.5998 9.804 68.6058 10.032 68.6178 10.26C68.6298 10.488 68.6358 10.722 68.6358 10.962H68.6718C68.7678 10.758 68.8998 10.56 69.0678 10.368C69.2478 10.176 69.4578 10.008 69.6978 9.864C69.9378 9.708 70.2078 9.588 70.5078 9.504C70.8078 9.408 71.1318 9.36 71.4798 9.36C71.5758 9.36 71.6718 9.366 71.7678 9.378C71.8638 9.39 71.9598 9.414 72.0558 9.45L71.9658 10.872C71.7258 10.8 71.4738 10.764 71.2098 10.764C70.3458 10.764 69.7158 11.046 69.3198 11.61C68.9358 12.162 68.7438 12.924 68.7438 13.896V18H67.3398V11.574ZM80.3535 16.506H80.3175C80.0535 16.986 79.6335 17.394 79.0575 17.73C78.4935 18.054 77.8335 18.216 77.0775 18.216C76.4895 18.216 75.9375 18.108 75.4215 17.892C74.9055 17.664 74.4555 17.352 74.0715 16.956C73.6995 16.56 73.4055 16.092 73.1895 15.552C72.9735 15.012 72.8655 14.424 72.8655 13.788C72.8655 13.152 72.9735 12.564 73.1895 12.024C73.4055 11.484 73.7055 11.016 74.0895 10.62C74.4735 10.224 74.9355 9.918 75.4755 9.702C76.0275 9.474 76.6335 9.36 77.2935 9.36C77.9055 9.36 78.4635 9.486 78.9675 9.738C79.4835 9.99 79.9335 10.344 80.3175 10.8H80.3535V4.392H81.7575V18H80.3535V16.506ZM80.3535 13.788C80.3535 13.344 80.2815 12.936 80.1375 12.564C80.0055 12.18 79.8075 11.85 79.5435 11.574C79.2795 11.286 78.9615 11.064 78.5895 10.908C78.2295 10.74 77.8215 10.656 77.3655 10.656C76.9095 10.656 76.4955 10.74 76.1235 10.908C75.7635 11.064 75.4515 11.286 75.1875 11.574C74.9235 11.85 74.7195 12.18 74.5755 12.564C74.4435 12.936 74.3775 13.344 74.3775 13.788C74.3775 14.232 74.4435 14.646 74.5755 15.03C74.7195 15.402 74.9235 15.732 75.1875 16.02C75.4515 16.296 75.7635 16.518 76.1235 16.686C76.4955 16.842 76.9095 16.92 77.3655 16.92C77.8215 16.92 78.2295 16.842 78.5895 16.686C78.9615 16.518 79.2795 16.296 79.5435 16.02C79.8075 15.732 80.0055 15.402 80.1375 15.03C80.2815 14.646 80.3535 14.232 80.3535 13.788ZM84.499 9.576H85.903V18H84.499V9.576ZM84.175 6.282C84.175 6.006 84.271 5.766 84.463 5.562C84.667 5.358 84.913 5.256 85.201 5.256C85.489 5.256 85.729 5.358 85.921 5.562C86.125 5.766 86.227 6.006 86.227 6.282C86.227 6.582 86.131 6.828 85.939 7.02C85.747 7.212 85.501 7.308 85.201 7.308C84.901 7.308 84.655 7.212 84.463 7.02C84.271 6.828 84.175 6.582 84.175 6.282ZM88.6972 11.574C88.6972 11.19 88.6852 10.83 88.6612 10.494C88.6372 10.158 88.6252 9.852 88.6252 9.576H89.9572C89.9572 9.804 89.9632 10.032 89.9752 10.26C89.9872 10.488 89.9932 10.722 89.9932 10.962H90.0292C90.1252 10.758 90.2572 10.56 90.4252 10.368C90.6052 10.176 90.8152 10.008 91.0552 9.864C91.2952 9.708 91.5652 9.588 91.8652 9.504C92.1652 9.408 92.4892 9.36 92.8372 9.36C93.3892 9.36 93.8632 9.444 94.2592 9.612C94.6672 9.78 95.0032 10.014 95.2672 10.314C95.5312 10.614 95.7232 10.98 95.8432 11.412C95.9752 11.832 96.0412 12.294 96.0412 12.798V18H94.6372V12.942C94.6372 12.234 94.4812 11.676 94.1692 11.268C93.8572 10.86 93.3712 10.656 92.7112 10.656C92.2552 10.656 91.8592 10.734 91.5232 10.89C91.1992 11.046 90.9292 11.268 90.7132 11.556C90.5092 11.844 90.3532 12.186 90.2452 12.582C90.1492 12.978 90.1012 13.416 90.1012 13.896V18H88.6972V11.574ZM98.5912 10.656C99.0232 10.212 99.5332 9.888 100.121 9.684C100.721 9.468 101.327 9.36 101.939 9.36C103.187 9.36 104.087 9.654 104.639 10.242C105.191 10.83 105.467 11.724 105.467 12.924V16.542C105.467 16.782 105.479 17.034 105.503 17.298C105.527 17.55 105.557 17.784 105.593 18H104.243C104.195 17.808 104.165 17.598 104.153 17.37C104.153 17.13 104.153 16.92 104.153 16.74H104.117C103.841 17.172 103.469 17.526 103.001 17.802C102.545 18.078 101.993 18.216 101.345 18.216C100.913 18.216 100.505 18.162 100.121 18.054C99.7492 17.946 99.4192 17.79 99.1312 17.586C98.8552 17.37 98.6332 17.106 98.4652 16.794C98.2972 16.482 98.2132 16.122 98.2132 15.714C98.2132 15.018 98.3932 14.472 98.7532 14.076C99.1132 13.68 99.5572 13.386 100.085 13.194C100.625 13.002 101.201 12.882 101.813 12.834C102.437 12.786 103.007 12.762 103.523 12.762H104.063V12.51C104.063 11.898 103.877 11.436 103.505 11.124C103.145 10.812 102.635 10.656 101.975 10.656C101.519 10.656 101.069 10.734 100.625 10.89C100.193 11.034 99.8092 11.262 99.4732 11.574L98.5912 10.656ZM102.659 13.95C101.759 13.95 101.045 14.076 100.517 14.328C99.9892 14.58 99.7252 14.994 99.7252 15.57C99.7252 16.098 99.8992 16.476 100.247 16.704C100.607 16.92 101.051 17.028 101.579 17.028C101.987 17.028 102.341 16.962 102.641 16.83C102.953 16.686 103.211 16.5 103.415 16.272C103.619 16.044 103.775 15.78 103.883 15.48C103.991 15.168 104.051 14.838 104.063 14.49V13.95H102.659ZM108.159 4.392H109.563V18H108.159V4.392ZM54.134 31.66H49.922V43H48.41V31.66H44.198V30.256H54.134V31.66ZM53.556 35.656C53.988 35.212 54.498 34.888 55.086 34.684C55.686 34.468 56.292 34.36 56.904 34.36C58.152 34.36 59.052 34.654 59.604 35.242C60.156 35.83 60.432 36.724 60.432 37.924V41.542C60.432 41.782 60.444 42.034 60.468 42.298C60.492 42.55 60.522 42.784 60.558 43H59.208C59.16 42.808 59.13 42.598 59.118 42.37C59.118 42.13 59.118 41.92 59.118 41.74H59.082C58.806 42.172 58.434 42.526 57.966 42.802C57.51 43.078 56.958 43.216 56.31 43.216C55.878 43.216 55.47 43.162 55.086 43.054C54.714 42.946 54.384 42.79 54.096 42.586C53.82 42.37 53.598 42.106 53.43 41.794C53.262 41.482 53.178 41.122 53.178 40.714C53.178 40.018 53.358 39.472 53.718 39.076C54.078 38.68 54.522 38.386 55.05 38.194C55.59 38.002 56.166 37.882 56.778 37.834C57.402 37.786 57.972 37.762 58.488 37.762H59.028V37.51C59.028 36.898 58.842 36.436 58.47 36.124C58.11 35.812 57.6 35.656 56.94 35.656C56.484 35.656 56.034 35.734 55.59 35.89C55.158 36.034 54.774 36.262 54.438 36.574L53.556 35.656ZM57.624 38.95C56.724 38.95 56.01 39.076 55.482 39.328C54.954 39.58 54.69 39.994 54.69 40.57C54.69 41.098 54.864 41.476 55.212 41.704C55.572 41.92 56.016 42.028 56.544 42.028C56.952 42.028 57.306 41.962 57.606 41.83C57.918 41.686 58.176 41.5 58.38 41.272C58.584 41.044 58.74 40.78 58.848 40.48C58.956 40.168 59.016 39.838 59.028 39.49V38.95H57.624ZM63.124 29.392H64.528V43H63.124V29.392ZM74.8462 41.47C74.3422 42.118 73.7902 42.574 73.1902 42.838C72.5902 43.09 71.8942 43.216 71.1022 43.216C70.4422 43.216 69.8482 43.102 69.3202 42.874C68.7922 42.634 68.3422 42.316 67.9702 41.92C67.6102 41.524 67.3282 41.056 67.1242 40.516C66.9322 39.976 66.8362 39.4 66.8362 38.788C66.8362 38.14 66.9442 37.546 67.1602 37.006C67.3762 36.454 67.6762 35.986 68.0602 35.602C68.4442 35.206 68.9002 34.9 69.4282 34.684C69.9562 34.468 70.5322 34.36 71.1562 34.36C71.7442 34.36 72.2842 34.462 72.7762 34.666C73.2682 34.858 73.6882 35.146 74.0362 35.53C74.3962 35.902 74.6722 36.364 74.8642 36.916C75.0562 37.456 75.1522 38.074 75.1522 38.77V39.22H68.3482C68.3722 39.58 68.4562 39.928 68.6002 40.264C68.7562 40.588 68.9542 40.876 69.1942 41.128C69.4342 41.368 69.7162 41.56 70.0402 41.704C70.3642 41.848 70.7182 41.92 71.1022 41.92C71.7142 41.92 72.2302 41.812 72.6502 41.596C73.0702 41.38 73.4482 41.062 73.7842 40.642L74.8462 41.47ZM73.6402 38.032C73.6162 37.312 73.3822 36.736 72.9382 36.304C72.4942 35.872 71.8822 35.656 71.1022 35.656C70.3222 35.656 69.6922 35.872 69.2122 36.304C68.7322 36.736 68.4442 37.312 68.3482 38.032H73.6402ZM77.3242 36.574C77.3242 36.19 77.3122 35.83 77.2882 35.494C77.2642 35.158 77.2522 34.852 77.2522 34.576H78.5842C78.5842 34.804 78.5902 35.032 78.6022 35.26C78.6142 35.488 78.6202 35.722 78.6202 35.962H78.6562C78.7522 35.758 78.8842 35.56 79.0522 35.368C79.2322 35.176 79.4422 35.008 79.6822 34.864C79.9222 34.708 80.1922 34.588 80.4922 34.504C80.7922 34.408 81.1162 34.36 81.4642 34.36C82.0162 34.36 82.4902 34.444 82.8862 34.612C83.2942 34.78 83.6302 35.014 83.8942 35.314C84.1582 35.614 84.3502 35.98 84.4702 36.412C84.6022 36.832 84.6682 37.294 84.6682 37.798V43H83.2642V37.942C83.2642 37.234 83.1082 36.676 82.7962 36.268C82.4842 35.86 81.9982 35.656 81.3382 35.656C80.8822 35.656 80.4862 35.734 80.1502 35.89C79.8262 36.046 79.5562 36.268 79.3402 36.556C79.1362 36.844 78.9802 37.186 78.8722 37.582C78.7762 37.978 78.7282 38.416 78.7282 38.896V43H77.3242V36.574ZM91.9341 35.764H89.4501V39.976C89.4501 40.252 89.4561 40.51 89.4681 40.75C89.4801 40.978 89.5281 41.182 89.6121 41.362C89.6961 41.53 89.8221 41.668 89.9901 41.776C90.1581 41.872 90.3981 41.92 90.7101 41.92C90.9141 41.92 91.1241 41.896 91.3401 41.848C91.5561 41.8 91.7601 41.728 91.9521 41.632L92.0061 42.91C91.7661 43.018 91.4961 43.096 91.1961 43.144C90.9081 43.192 90.6321 43.216 90.3681 43.216C89.8641 43.216 89.4621 43.15 89.1621 43.018C88.8621 42.886 88.6281 42.7 88.4601 42.46C88.2921 42.22 88.1781 41.926 88.1181 41.578C88.0701 41.218 88.0461 40.822 88.0461 40.39V35.764H86.2101V34.576H88.0461V32.182H89.4501V34.576H91.9341V35.764ZM94.8243 40.948C95.1243 40.948 95.3763 41.056 95.5803 41.272C95.7963 41.476 95.9043 41.728 95.9043 42.028C95.9043 42.328 95.7903 42.586 95.5623 42.802C95.3463 43.006 95.1003 43.108 94.8243 43.108C94.5483 43.108 94.2963 43.006 94.0683 42.802C93.8523 42.586 93.7443 42.328 93.7443 42.028C93.7443 41.728 93.8463 41.476 94.0503 41.272C94.2663 41.056 94.5243 40.948 94.8243 40.948ZM98.556 35.656C98.988 35.212 99.498 34.888 100.086 34.684C100.686 34.468 101.292 34.36 101.904 34.36C103.152 34.36 104.052 34.654 104.604 35.242C105.156 35.83 105.432 36.724 105.432 37.924V41.542C105.432 41.782 105.444 42.034 105.468 42.298C105.492 42.55 105.522 42.784 105.558 43H104.208C104.16 42.808 104.13 42.598 104.118 42.37C104.118 42.13 104.118 41.92 104.118 41.74H104.082C103.806 42.172 103.434 42.526 102.966 42.802C102.51 43.078 101.958 43.216 101.31 43.216C100.878 43.216 100.47 43.162 100.086 43.054C99.714 42.946 99.384 42.79 99.096 42.586C98.82 42.37 98.598 42.106 98.43 41.794C98.262 41.482 98.178 41.122 98.178 40.714C98.178 40.018 98.358 39.472 98.718 39.076C99.078 38.68 99.522 38.386 100.05 38.194C100.59 38.002 101.166 37.882 101.778 37.834C102.402 37.786 102.972 37.762 103.488 37.762H104.028V37.51C104.028 36.898 103.842 36.436 103.47 36.124C103.11 35.812 102.6 35.656 101.94 35.656C101.484 35.656 101.034 35.734 100.59 35.89C100.158 36.034 99.774 36.262 99.438 36.574L98.556 35.656ZM102.624 38.95C101.724 38.95 101.01 39.076 100.482 39.328C99.954 39.58 99.69 39.994 99.69 40.57C99.69 41.098 99.864 41.476 100.212 41.704C100.572 41.92 101.016 42.028 101.544 42.028C101.952 42.028 102.306 41.962 102.606 41.83C102.918 41.686 103.176 41.5 103.38 41.272C103.584 41.044 103.74 40.78 103.848 40.48C103.956 40.168 104.016 39.838 104.028 39.49V38.95H102.624ZM108.124 34.576H109.528V43H108.124V34.576ZM107.8 31.282C107.8 31.006 107.896 30.766 108.088 30.562C108.292 30.358 108.538 30.256 108.826 30.256C109.114 30.256 109.354 30.358 109.546 30.562C109.75 30.766 109.852 31.006 109.852 31.282C109.852 31.582 109.756 31.828 109.564 32.02C109.372 32.212 109.126 32.308 108.826 32.308C108.526 32.308 108.28 32.212 108.088 32.02C107.896 31.828 107.8 31.582 107.8 31.282Z" fill="black"/>
<path d="M13.8597 31.3799C13.7794 22.2959 5.32014 13.4668 0.999634 11.9999C5.49963 11.4999 6.88637 11.9678 8.01572 12.7515C7.75899 12.0784 6.89583 11.1565 6.49635 10.7797C8.84449 10.7642 10.9512 12.2043 11.711 12.9263C11.5917 12.2351 11.2868 11.215 11.1493 10.7913C12.9391 10.9968 15.1298 13.4781 15.8397 14.4399C16.0612 13.9982 15.6726 12.2928 15.6123 11.7485C17.4458 12.9203 18.4497 15.6296 18.6997 16.6399C19.0388 16.2416 19.3163 14.9709 19.3597 14.4399C20.2464 15.2919 20.7373 18.4913 20.8997 19.2799C20.2346 22.7184 16.9397 28.2999 13.8597 31.3799Z" fill="url(#paint0_linear)"/>
<path d="M2.91246 30.3882C1.49784 30.5926 0.381394 31.9092 0 32.5419C2.96794 32.5419 6.18548 36.1044 7.99999 38.3798C13.8342 46.3097 21.1428 48.1397 29.5407 46.0482C35.6777 43.8697 40.5 40 44 37C40 38.83 31.5429 39.5998 26.4 37.7698C33.2571 35.9398 38.292 26.921 38.5 21.92C38.0562 22.4165 35.4623 24.6328 35 24.8032C36.6989 22.905 37.3073 17.7215 36.8218 15.8963C36.5445 16.5388 33.8467 20.1471 33.5 20.5C34.5818 16.9957 35 12 34.0827 10.1288C33.8886 11.0632 31.6357 14.9038 31 15.5C31.7767 11.2656 30.1789 6.29091 29 5.5C29.111 6.96014 28.2427 10.1726 28 11C27.473 6.44436 22.6337 3.14601 21.1428 3C24.4159 15.4404 18.3416 26.823 13.8342 31.2643C9.50711 28.1104 10.4826 25.6427 11.5112 24.8032C6.37968 25.0368 3.64058 28.6239 2.91246 30.3882Z" fill="url(#paint1_linear)"/>
<path d="M4.33367 28.198C3.60555 28.9646 3.0508 29.9502 2.91211 30.3882C3.88293 31.2643 3.74691 32.907 3.08814 33.637C6.28529 35.9398 6.28529 36.5498 7.99958 38.3798C8.20761 36.5911 8.77171 35.3162 7.45416 33.637C6.12612 31.9445 5.20047 30.3882 4.33367 28.198Z" fill="#332325"/>
<path d="M26.3998 37.7599C24.4198 37.7599 21.5598 36.2199 19.7998 35.3303C22.6569 34.7203 27.4998 33.7056 30.1398 31.8199C32.7798 29.9342 36.5198 26.9799 38.4998 21.9199C37.8319 31.6704 31.1312 37.7599 26.3998 37.7599Z" fill="#C23A4E"/>
<path d="M29.1428 44.4797C35.0275 43.4327 41.0046 39.5 43.9999 37C40.9999 40 36.5714 43.8697 29.5754 46.0482C20.5714 48.7497 14.8571 45.0897 12 42.6497C16.9005 45.0636 25.7143 45.0897 29.1428 44.4797Z" fill="#C23B4F"/>
<defs>
<linearGradient id="paint0_linear" x1="10.2427" y1="10.285" x2="13.0422" y2="31.4878" gradientUnits="userSpaceOnUse">
<stop stop-color="#F9435E"/>
<stop offset="1" stop-color="#B8384B"/>
</linearGradient>
<linearGradient id="paint1_linear" x1="22" y1="3" x2="22" y2="46.8475" gradientUnits="userSpaceOnUse">
<stop stop-color="#F74761"/>
<stop offset="0.567708" stop-color="#E34A61"/>
<stop offset="1" stop-color="#C23B4F"/>
</linearGradient>
</defs>
</svg>
