<svg width="848" height="262" viewBox="0 0 848 262" fill="none" xmlns="http://www.w3.org/2000/svg">
<circle cx="717" cy="131" r="123.061" fill="white" stroke="#DAE0FC" stroke-width="15.8788"/>
<path d="M669.076 112.148C668.545 112.281 668.015 112.391 667.484 112.48C666.954 112.568 666.401 112.612 665.826 112.612C663.616 112.612 661.604 112.215 659.791 111.419C657.978 110.623 656.431 109.54 655.149 108.169C653.867 106.798 652.872 105.185 652.164 103.328C651.457 101.426 651.103 99.4147 651.103 97.2924C651.103 94.8607 651.545 92.6721 652.43 90.7267C653.358 88.7371 654.596 87.0349 656.144 85.62C657.735 84.2052 659.592 83.122 661.714 82.3703C663.837 81.5745 666.136 81.1766 668.612 81.1766C671.044 81.1766 673.321 81.5745 675.443 82.3703C677.609 83.122 679.466 84.2052 681.014 85.62C682.605 87.0349 683.843 88.7371 684.728 90.7267C685.656 92.6721 686.12 94.8607 686.12 97.2924C686.12 98.9725 685.966 100.52 685.656 101.935C685.347 103.305 684.927 104.61 684.396 105.848C683.91 107.086 683.313 108.279 682.605 109.429C681.942 110.534 681.235 111.684 680.483 112.878L670.203 128.927H658.067L669.076 112.148ZM661.051 97.6903C661.051 99.8126 661.737 101.581 663.107 102.996C664.522 104.367 666.357 105.052 668.612 105.052C670.867 105.052 672.679 104.367 674.05 102.996C675.465 101.581 676.172 99.8126 676.172 97.6903C676.172 95.5681 675.465 93.8216 674.05 92.451C672.679 91.0362 670.867 90.3288 668.612 90.3288C666.357 90.3288 664.522 91.0362 663.107 92.451C661.737 93.8216 661.051 95.5681 661.051 97.6903ZM708.324 112.148C707.794 112.281 707.263 112.391 706.733 112.48C706.202 112.568 705.649 112.612 705.075 112.612C702.864 112.612 700.852 112.215 699.039 111.419C697.227 110.623 695.679 109.54 694.397 108.169C693.115 106.798 692.12 105.185 691.413 103.328C690.705 101.426 690.351 99.4147 690.351 97.2924C690.351 94.8607 690.794 92.6721 691.678 90.7267C692.606 88.7371 693.844 87.0349 695.392 85.62C696.983 84.2052 698.84 83.122 700.963 82.3703C703.085 81.5745 705.384 81.1766 707.86 81.1766C710.292 81.1766 712.569 81.5745 714.691 82.3703C716.857 83.122 718.714 84.2052 720.262 85.62C721.854 87.0349 723.092 88.7371 723.976 90.7267C724.904 92.6721 725.369 94.8607 725.369 97.2924C725.369 98.9725 725.214 100.52 724.904 101.935C724.595 103.305 724.175 104.61 723.644 105.848C723.158 107.086 722.561 108.279 721.854 109.429C721.19 110.534 720.483 111.684 719.731 112.878L709.452 128.927H697.315L708.324 112.148ZM700.299 97.6903C700.299 99.8126 700.985 101.581 702.355 102.996C703.77 104.367 705.605 105.052 707.86 105.052C710.115 105.052 711.928 104.367 713.298 102.996C714.713 101.581 715.421 99.8126 715.421 97.6903C715.421 95.5681 714.713 93.8216 713.298 92.451C711.928 91.0362 710.115 90.3288 707.86 90.3288C705.605 90.3288 703.77 91.0362 702.355 92.451C700.985 93.8216 700.299 95.5681 700.299 97.6903ZM761.036 116.525C761.036 114.713 761.367 113.01 762.03 111.419C762.738 109.827 763.666 108.434 764.816 107.24C766.01 106.047 767.402 105.118 768.994 104.455C770.586 103.748 772.288 103.394 774.101 103.394C775.913 103.394 777.616 103.748 779.207 104.455C780.799 105.118 782.17 106.047 783.319 107.24C784.513 108.434 785.441 109.827 786.105 111.419C786.812 113.01 787.166 114.713 787.166 116.525C787.166 118.338 786.812 120.062 786.105 121.698C785.441 123.29 784.513 124.683 783.319 125.877C782.17 127.07 780.799 128.021 779.207 128.728C777.616 129.391 775.913 129.723 774.101 129.723C772.288 129.723 770.586 129.391 768.994 128.728C767.402 128.021 766.01 127.07 764.816 125.877C763.666 124.683 762.738 123.29 762.03 121.698C761.367 120.062 761.036 118.338 761.036 116.525ZM780.401 116.525C780.401 114.757 779.782 113.254 778.544 112.016C777.35 110.778 775.869 110.159 774.101 110.159C772.332 110.159 770.829 110.778 769.591 112.016C768.397 113.254 767.8 114.757 767.8 116.525C767.8 118.338 768.397 119.863 769.591 121.101C770.829 122.339 772.332 122.958 774.101 122.958C775.869 122.958 777.35 122.339 778.544 121.101C779.782 119.863 780.401 118.338 780.401 116.525ZM727.676 94.308C727.676 92.4952 728.008 90.793 728.671 89.2013C729.379 87.6096 730.307 86.2169 731.457 85.0231C732.65 83.8294 734.043 82.9009 735.635 82.2377C737.226 81.5303 738.929 81.1766 740.741 81.1766C742.554 81.1766 744.256 81.5303 745.848 82.2377C747.44 82.9009 748.81 83.8294 749.96 85.0231C751.154 86.2169 752.082 87.6096 752.745 89.2013C753.453 90.793 753.807 92.4952 753.807 94.308C753.807 96.1208 753.453 97.823 752.745 99.4147C752.082 101.006 751.154 102.399 749.96 103.593C748.81 104.787 747.44 105.737 745.848 106.445C744.256 107.108 742.554 107.439 740.741 107.439C738.929 107.439 737.226 107.108 735.635 106.445C734.043 105.737 732.65 104.787 731.457 103.593C730.307 102.399 729.379 101.006 728.671 99.4147C728.008 97.823 727.676 96.1208 727.676 94.308ZM747.042 94.308C747.042 92.5394 746.423 91.0362 745.185 89.7982C743.991 88.5602 742.51 87.9412 740.741 87.9412C738.973 87.9412 737.47 88.5602 736.232 89.7982C735.038 91.0362 734.441 92.5394 734.441 94.308C734.441 96.0765 735.038 97.5798 736.232 98.8178C737.47 100.056 738.973 100.675 740.741 100.675C742.51 100.675 743.991 100.056 745.185 98.8178C746.423 97.5798 747.042 96.0765 747.042 94.308ZM768.132 79.8501L773.703 82.9672L746.312 131.049L741.272 128.198L768.132 79.8501Z" fill="#DAE0FC"/>
<path d="M646.915 143.354H659.213L667.707 167.429H667.811L676.357 143.354H688.603V180.248H680.474V151.952H680.369L670.677 180.248H664.476L655.149 151.952H655.044V180.248H646.915V143.354ZM711.027 177.069H710.923C710.054 178.424 708.89 179.396 707.431 179.987C706.007 180.578 704.496 180.873 702.898 180.873C701.717 180.873 700.57 180.699 699.459 180.352C698.382 180.039 697.426 179.553 696.593 178.893C695.759 178.233 695.099 177.416 694.613 176.444C694.126 175.471 693.883 174.342 693.883 173.057C693.883 171.597 694.144 170.364 694.665 169.357C695.22 168.349 695.95 167.516 696.853 166.856C697.791 166.196 698.851 165.692 700.032 165.344C701.213 164.962 702.429 164.684 703.679 164.511C704.965 164.337 706.233 164.233 707.483 164.198C708.769 164.163 709.95 164.146 711.027 164.146C711.027 162.756 710.523 161.662 709.516 160.863C708.543 160.029 707.379 159.612 706.024 159.612C704.739 159.612 703.558 159.89 702.481 160.446C701.439 160.967 700.501 161.697 699.667 162.635L695.498 158.362C696.957 157.007 698.66 156 700.605 155.34C702.55 154.645 704.565 154.297 706.65 154.297C708.942 154.297 710.818 154.593 712.277 155.183C713.771 155.739 714.952 156.573 715.821 157.684C716.724 158.796 717.349 160.168 717.697 161.801C718.044 163.399 718.218 165.258 718.218 167.377V180.248H711.027V177.069ZM709.099 169.148C708.508 169.148 707.761 169.183 706.858 169.253C705.99 169.287 705.139 169.426 704.305 169.669C703.506 169.913 702.811 170.277 702.22 170.764C701.665 171.25 701.387 171.928 701.387 172.796C701.387 173.734 701.786 174.429 702.585 174.88C703.384 175.332 704.218 175.558 705.086 175.558C705.851 175.558 706.58 175.454 707.275 175.245C708.005 175.037 708.647 174.741 709.203 174.359C709.759 173.977 710.193 173.491 710.506 172.9C710.853 172.31 711.027 171.615 711.027 170.816V169.148H709.099ZM740.37 161.176H733.491V169.617C733.491 170.312 733.526 170.955 733.596 171.545C733.665 172.101 733.822 172.588 734.065 173.004C734.308 173.421 734.673 173.751 735.159 173.994C735.68 174.203 736.357 174.307 737.191 174.307C737.608 174.307 738.147 174.272 738.807 174.203C739.501 174.099 740.022 173.89 740.37 173.578V180.091C739.501 180.404 738.598 180.612 737.66 180.717C736.722 180.821 735.802 180.873 734.898 180.873C733.578 180.873 732.362 180.734 731.251 180.456C730.139 180.178 729.166 179.744 728.333 179.153C727.499 178.528 726.839 177.729 726.353 176.756C725.901 175.784 725.675 174.602 725.675 173.213V161.176H720.673V154.923H725.675V147.419H733.491V154.923H740.37V161.176ZM761.486 163.104C761.104 162.548 760.565 162.096 759.87 161.749C759.176 161.367 758.429 161.176 757.63 161.176C755.65 161.176 754.104 161.766 752.992 162.947C751.915 164.129 751.377 165.674 751.377 167.585C751.377 169.496 751.915 171.042 752.992 172.223C754.104 173.404 755.65 173.994 757.63 173.994C758.498 173.994 759.245 173.803 759.87 173.421C760.496 173.039 761.034 172.588 761.486 172.066L766.645 177.486C765.429 178.736 763.987 179.622 762.32 180.143C760.687 180.63 759.123 180.873 757.63 180.873C755.684 180.873 753.843 180.56 752.106 179.935C750.404 179.31 748.91 178.424 747.625 177.277C746.374 176.096 745.384 174.689 744.655 173.057C743.925 171.424 743.56 169.6 743.56 167.585C743.56 165.57 743.925 163.746 744.655 162.114C745.384 160.481 746.374 159.091 747.625 157.945C748.91 156.764 750.404 155.861 752.106 155.235C753.843 154.61 755.684 154.297 757.63 154.297C759.123 154.297 760.687 154.558 762.32 155.079C763.987 155.565 765.429 156.434 766.645 157.684L761.486 163.104ZM777.297 140.853V158.362H777.401C777.575 157.875 777.87 157.389 778.287 156.903C778.704 156.416 779.207 155.982 779.798 155.6C780.389 155.218 781.083 154.905 781.882 154.662C782.681 154.419 783.55 154.297 784.488 154.297C786.468 154.297 788.066 154.61 789.282 155.235C790.498 155.826 791.436 156.66 792.096 157.737C792.79 158.813 793.259 160.081 793.503 161.54C793.746 163 793.867 164.58 793.867 166.282V180.248H786.051V167.846C786.051 167.116 786.016 166.369 785.947 165.605C785.912 164.806 785.756 164.076 785.478 163.416C785.235 162.756 784.835 162.218 784.279 161.801C783.758 161.384 782.994 161.176 781.987 161.176C780.979 161.176 780.163 161.367 779.537 161.749C778.912 162.096 778.426 162.583 778.078 163.208C777.766 163.799 777.557 164.476 777.453 165.24C777.349 166.004 777.297 166.803 777.297 167.637V180.248H769.48V140.853H777.297Z" fill="#DAE0FC"/>
<path d="M71.9182 125.746C67.0848 128.268 62.0412 130.089 56.7875 131.21C51.5337 132.331 46.1749 132.891 40.711 132.891C34.8969 132.891 29.5381 131.981 24.6346 130.159C19.7311 128.338 15.4931 125.746 11.9206 122.384C8.34806 118.951 5.54607 114.819 3.51463 109.985C1.55323 105.152 0.572537 99.7578 0.572537 93.8036C0.572537 87.8494 1.55323 82.4555 3.51463 77.6221C5.54607 72.7887 8.34806 68.6907 11.9206 65.3284C15.4931 61.8959 19.7311 59.2691 24.6346 57.4478C29.5381 55.6265 34.8969 54.7158 40.711 54.7158C46.6653 54.7158 52.1292 55.4513 57.1027 56.9224C62.1463 58.3234 66.5594 60.7751 70.3421 64.2776L58.7839 76.8866C56.5423 74.5749 54.0205 72.8237 51.2185 71.6328C48.4165 70.442 44.914 69.8466 40.711 69.8466C37.2086 69.8466 34.0213 70.442 31.1493 71.6328C28.3473 72.8237 25.9305 74.5049 23.8991 76.6764C21.8677 78.7779 20.2915 81.2997 19.1707 84.2418C18.12 87.1839 17.5946 90.3711 17.5946 93.8036C17.5946 97.3061 18.12 100.528 19.1707 103.47C20.2915 106.342 21.8677 108.864 23.8991 111.036C25.9305 113.137 28.3473 114.783 31.1493 115.974C34.0213 117.165 37.2086 117.761 40.711 117.761C44.2836 117.761 47.3658 117.375 49.9576 116.605C52.5495 115.764 54.6159 114.924 56.157 114.083V101.999H42.8125V86.8687H71.9182V125.746ZM132.685 122.174C130.163 125.396 126.976 127.883 123.123 129.634C119.27 131.385 115.278 132.261 111.145 132.261C107.222 132.261 103.509 131.63 100.007 130.37C96.5744 129.109 93.5622 127.322 90.9704 125.011C88.4486 122.629 86.4522 119.792 84.9811 116.5C83.5101 113.207 82.7746 109.53 82.7746 105.467C82.7746 101.404 83.5101 97.7264 84.9811 94.434C86.4522 91.1417 88.4486 88.3397 90.9704 86.0281C93.5622 83.6464 96.5744 81.8251 100.007 80.5642C103.509 79.3033 107.222 78.6728 111.145 78.6728C114.787 78.6728 118.08 79.3033 121.022 80.5642C124.034 81.8251 126.556 83.6464 128.587 86.0281C130.689 88.3397 132.3 91.1417 133.421 94.434C134.541 97.7264 135.102 101.404 135.102 105.467V110.405H98.5357C99.1662 113.418 100.532 115.834 102.634 117.656C104.735 119.407 107.327 120.282 110.409 120.282C113.001 120.282 115.173 119.722 116.924 118.601C118.745 117.41 120.321 115.904 121.652 114.083L132.685 122.174ZM119.341 99.6878C119.411 97.0259 118.535 94.7493 116.714 92.8579C114.892 90.9666 112.546 90.0209 109.674 90.0209C107.922 90.0209 106.381 90.3011 105.05 90.8615C103.719 91.4219 102.564 92.1574 101.583 93.0681C100.672 93.9087 99.9367 94.9244 99.3763 96.1152C98.886 97.236 98.6058 98.4269 98.5357 99.6878H119.341ZM179.466 92.5427H165.596V109.565C165.596 110.966 165.666 112.262 165.806 113.453C165.947 114.573 166.262 115.554 166.752 116.395C167.243 117.235 167.978 117.901 168.959 118.391C170.009 118.811 171.375 119.021 173.057 119.021C173.897 119.021 174.983 118.951 176.314 118.811C177.715 118.601 178.766 118.181 179.466 117.55V130.685C177.715 131.315 175.894 131.736 174.002 131.946C172.111 132.156 170.255 132.261 168.433 132.261C165.771 132.261 163.32 131.981 161.078 131.42C158.837 130.86 156.875 129.984 155.194 128.793C153.513 127.533 152.182 125.921 151.201 123.96C150.29 121.999 149.835 119.617 149.835 116.815V92.5427H139.748V79.9337H149.835V64.803H165.596V79.9337H179.466V92.5427ZM220.563 56.6072H245.361L262.488 105.152H262.698L279.931 56.6072H304.623V131H288.232V73.9445H288.021L268.478 131H255.974L237.165 73.9445H236.955V131H220.563V56.6072ZM349.841 124.59H349.63C347.879 127.322 345.533 129.284 342.59 130.475C339.718 131.665 336.671 132.261 333.449 132.261C331.067 132.261 328.756 131.911 326.514 131.21C324.342 130.58 322.416 129.599 320.735 128.268C319.054 126.937 317.723 125.291 316.742 123.33C315.761 121.368 315.271 119.092 315.271 116.5C315.271 113.558 315.796 111.071 316.847 109.039C317.968 107.008 319.439 105.327 321.26 103.996C323.152 102.665 325.288 101.649 327.67 100.949C330.052 100.178 332.503 99.6177 335.025 99.2675C337.617 98.9172 340.174 98.7071 342.696 98.637C345.287 98.567 347.669 98.5319 349.841 98.5319C349.841 95.73 348.825 93.5234 346.793 91.9122C344.832 90.231 342.485 89.3904 339.753 89.3904C337.162 89.3904 334.78 89.9508 332.608 91.0716C330.507 92.1224 328.616 93.5934 326.934 95.4848L318.528 86.8687C321.47 84.1367 324.903 82.1053 328.826 80.7743C332.748 79.3733 336.811 78.6728 341.014 78.6728C345.638 78.6728 349.42 79.2683 352.362 80.4591C355.375 81.5799 357.756 83.2611 359.507 85.5027C361.329 87.7443 362.59 90.5112 363.29 93.8036C363.991 97.0259 364.341 100.774 364.341 105.047V131H349.841V124.59ZM345.953 108.619C344.762 108.619 343.256 108.689 341.435 108.829C339.683 108.899 337.967 109.18 336.286 109.67C334.675 110.16 333.274 110.896 332.083 111.876C330.962 112.857 330.402 114.223 330.402 115.974C330.402 117.866 331.207 119.267 332.819 120.177C334.43 121.088 336.111 121.543 337.862 121.543C339.403 121.543 340.874 121.333 342.275 120.913C343.746 120.493 345.042 119.897 346.163 119.127C347.284 118.356 348.159 117.375 348.79 116.184C349.49 114.994 349.841 113.593 349.841 111.981V108.619H345.953ZM409.009 92.5427H395.139V109.565C395.139 110.966 395.209 112.262 395.349 113.453C395.489 114.573 395.805 115.554 396.295 116.395C396.785 117.235 397.521 117.901 398.502 118.391C399.552 118.811 400.918 119.021 402.6 119.021C403.44 119.021 404.526 118.951 405.857 118.811C407.258 118.601 408.309 118.181 409.009 117.55V130.685C407.258 131.315 405.437 131.736 403.545 131.946C401.654 132.156 399.798 132.261 397.976 132.261C395.314 132.261 392.863 131.981 390.621 131.42C388.379 130.86 386.418 129.984 384.737 128.793C383.056 127.533 381.725 125.921 380.744 123.96C379.833 121.999 379.378 119.617 379.378 116.815V92.5427H369.291V79.9337H379.378V64.803H395.139V79.9337H409.009V92.5427ZM451.588 96.4304C450.818 95.3097 449.732 94.399 448.331 93.6985C446.93 92.928 445.424 92.5427 443.813 92.5427C439.82 92.5427 436.703 93.7335 434.461 96.1152C432.289 98.4969 431.204 101.614 431.204 105.467C431.204 109.32 432.289 112.437 434.461 114.819C436.703 117.2 439.82 118.391 443.813 118.391C445.564 118.391 447.07 118.006 448.331 117.235C449.592 116.465 450.677 115.554 451.588 114.503L461.991 125.431C459.539 127.953 456.632 129.739 453.269 130.79C449.977 131.771 446.825 132.261 443.813 132.261C439.89 132.261 436.177 131.63 432.675 130.37C429.242 129.109 426.23 127.322 423.638 125.011C421.116 122.629 419.12 119.792 417.649 116.5C416.178 113.207 415.442 109.53 415.442 105.467C415.442 101.404 416.178 97.7264 417.649 94.434C419.12 91.1417 421.116 88.3397 423.638 86.0281C426.23 83.6464 429.242 81.8251 432.675 80.5642C436.177 79.3033 439.89 78.6728 443.813 78.6728C446.825 78.6728 449.977 79.1982 453.269 80.249C456.632 81.2297 459.539 82.9809 461.991 85.5027L451.588 96.4304ZM483.47 51.5636V86.8687H483.68C484.03 85.888 484.626 84.9073 485.466 83.9266C486.307 82.9459 487.323 82.0702 488.514 81.2997C489.705 80.5292 491.105 79.8987 492.717 79.4084C494.328 78.918 496.079 78.6728 497.97 78.6728C501.963 78.6728 505.185 79.3033 507.637 80.5642C510.089 81.755 511.98 83.4362 513.311 85.6078C514.712 87.7793 515.658 90.3361 516.148 93.2782C516.639 96.2203 516.884 99.4076 516.884 102.84V131H501.123V105.992C501.123 104.521 501.053 103.015 500.912 101.474C500.842 99.8629 500.527 98.3918 499.967 97.0609C499.476 95.73 498.671 94.6442 497.55 93.8036C496.499 92.963 494.958 92.5427 492.927 92.5427C490.895 92.5427 489.249 92.928 487.988 93.6985C486.727 94.399 485.747 95.3797 485.046 96.6406C484.416 97.8314 483.995 99.1974 483.785 100.739C483.575 102.28 483.47 103.891 483.47 105.572V131H467.709V51.5636H483.47ZM576.379 122.174C573.857 125.396 570.67 127.883 566.817 129.634C562.964 131.385 558.972 132.261 554.839 132.261C550.916 132.261 547.203 131.63 543.701 130.37C540.268 129.109 537.256 127.322 534.664 125.011C532.143 122.629 530.146 119.792 528.675 116.5C527.204 113.207 526.469 109.53 526.469 105.467C526.469 101.404 527.204 97.7264 528.675 94.434C530.146 91.1417 532.143 88.3397 534.664 86.0281C537.256 83.6464 540.268 81.8251 543.701 80.5642C547.203 79.3033 550.916 78.6728 554.839 78.6728C558.481 78.6728 561.774 79.3033 564.716 80.5642C567.728 81.8251 570.25 83.6464 572.281 86.0281C574.383 88.3397 575.994 91.1417 577.115 94.434C578.235 97.7264 578.796 101.404 578.796 105.467V110.405H542.23C542.86 113.418 544.226 115.834 546.328 117.656C548.429 119.407 551.021 120.282 554.103 120.282C556.695 120.282 558.867 119.722 560.618 118.601C562.439 117.41 564.015 115.904 565.346 114.083L576.379 122.174ZM563.035 99.6878C563.105 97.0259 562.229 94.7493 560.408 92.8579C558.586 90.9666 556.24 90.0209 553.368 90.0209C551.616 90.0209 550.075 90.3011 548.744 90.8615C547.413 91.4219 546.258 92.1574 545.277 93.0681C544.366 93.9087 543.631 94.9244 543.07 96.1152C542.58 97.236 542.3 98.4269 542.23 99.6878H563.035ZM641.969 131H627.468V124.275H627.258C626.628 125.186 625.787 126.132 624.736 127.112C623.756 128.023 622.565 128.863 621.164 129.634C619.833 130.405 618.327 131.035 616.646 131.525C615.034 132.016 613.353 132.261 611.602 132.261C607.819 132.261 604.387 131.63 601.305 130.37C598.222 129.039 595.561 127.217 593.319 124.906C591.147 122.524 589.466 119.722 588.275 116.5C587.085 113.277 586.489 109.74 586.489 105.887C586.489 102.315 587.015 98.9172 588.065 95.6949C589.186 92.4026 590.727 89.4955 592.689 86.9737C594.72 84.4519 597.172 82.4555 600.044 80.9845C602.916 79.4434 606.173 78.6728 609.816 78.6728C613.108 78.6728 616.155 79.1982 618.957 80.249C621.829 81.2297 624.176 82.9459 625.997 85.3976H626.207V51.5636H641.969V131ZM627.468 105.467C627.468 101.614 626.347 98.4969 624.106 96.1152C621.934 93.7335 618.852 92.5427 614.859 92.5427C610.866 92.5427 607.749 93.7335 605.508 96.1152C603.336 98.4969 602.25 101.614 602.25 105.467C602.25 109.32 603.336 112.437 605.508 114.819C607.749 117.2 610.866 118.391 614.859 118.391C618.852 118.391 621.934 117.2 624.106 114.819C626.347 112.437 627.468 109.32 627.468 105.467Z" fill="#304BE0"/>
<path d="M1.80299 172.85H8.10746L12.0084 184.868H12.0872L15.3576 172.85H21.8197L25.366 184.868H25.4448L29.0304 172.85H35.0197L28.203 192H22.3713L18.3916 179.273H18.3128L14.7666 192H8.81672L1.80299 172.85ZM36.9902 172.85H42.9006V192H36.9902V172.85ZM36.5173 166.821C36.5173 165.876 36.8457 165.075 37.5024 164.418C38.1854 163.735 38.9997 163.393 39.9454 163.393C40.8911 163.393 41.6922 163.735 42.349 164.418C43.0319 165.075 43.3734 165.876 43.3734 166.821C43.3734 167.767 43.0319 168.581 42.349 169.264C41.6922 169.921 40.8911 170.25 39.9454 170.25C38.9997 170.25 38.1854 169.921 37.5024 169.264C36.8457 168.581 36.5173 167.767 36.5173 166.821ZM60.1893 177.579H54.9881V183.962C54.9881 184.487 55.0144 184.973 55.0669 185.42C55.1194 185.84 55.2376 186.208 55.4215 186.523C55.6054 186.838 55.8812 187.088 56.249 187.272C56.643 187.429 57.1553 187.508 57.7857 187.508C58.1009 187.508 58.5081 187.482 59.0072 187.429C59.5326 187.35 59.9266 187.193 60.1893 186.956V191.882C59.5326 192.118 58.8496 192.276 58.1403 192.355C57.4311 192.433 56.735 192.473 56.052 192.473C55.0538 192.473 54.1344 192.368 53.2938 192.158C52.4532 191.947 51.7176 191.619 51.0872 191.173C50.4567 190.7 49.9576 190.096 49.5899 189.36C49.2484 188.624 49.0776 187.731 49.0776 186.681V177.579H45.295V172.85H49.0776V167.176H54.9881V172.85H60.1893V177.579ZM69.1033 162.211V175.451H69.1821C69.3134 175.083 69.5367 174.715 69.8519 174.347C70.1672 173.98 70.5481 173.651 70.9946 173.362C71.4412 173.073 71.9666 172.837 72.5707 172.653C73.1749 172.469 73.8316 172.377 74.5409 172.377C76.0382 172.377 77.2466 172.614 78.166 173.087C79.0854 173.533 79.7946 174.164 80.2937 174.978C80.8191 175.792 81.1737 176.751 81.3576 177.854C81.5415 178.958 81.6334 180.153 81.6334 181.44V192H75.723V182.622C75.723 182.07 75.6967 181.506 75.6442 180.928C75.6179 180.324 75.4997 179.772 75.2896 179.273C75.1057 178.774 74.8036 178.367 74.3833 178.051C73.9893 177.736 73.4113 177.579 72.6496 177.579C71.8878 177.579 71.2704 177.723 70.7976 178.012C70.3248 178.275 69.957 178.642 69.6943 179.115C69.4579 179.562 69.3003 180.074 69.2215 180.652C69.1427 181.23 69.1033 181.834 69.1033 182.464V192H63.1928V162.211H69.1033ZM110.52 177.579H105.319V183.962C105.319 184.487 105.346 184.973 105.398 185.42C105.451 185.84 105.569 186.208 105.753 186.523C105.937 186.838 106.212 187.088 106.58 187.272C106.974 187.429 107.486 187.508 108.117 187.508C108.432 187.508 108.839 187.482 109.338 187.429C109.864 187.35 110.258 187.193 110.52 186.956V191.882C109.864 192.118 109.181 192.276 108.471 192.355C107.762 192.433 107.066 192.473 106.383 192.473C105.385 192.473 104.466 192.368 103.625 192.158C102.784 191.947 102.049 191.619 101.418 191.173C100.788 190.7 100.289 190.096 99.921 189.36C99.5795 188.624 99.4088 187.731 99.4088 186.681V177.579H95.6261V172.85H99.4088V167.176H105.319V172.85H110.52V177.579ZM119.434 162.211V175.451H119.513C119.645 175.083 119.868 174.715 120.183 174.347C120.498 173.98 120.879 173.651 121.326 173.362C121.772 173.073 122.298 172.837 122.902 172.653C123.506 172.469 124.163 172.377 124.872 172.377C126.369 172.377 127.578 172.614 128.497 173.087C129.417 173.533 130.126 174.164 130.625 174.978C131.15 175.792 131.505 176.751 131.689 177.854C131.873 178.958 131.965 180.153 131.965 181.44V192H126.054V182.622C126.054 182.07 126.028 181.506 125.975 180.928C125.949 180.324 125.831 179.772 125.621 179.273C125.437 178.774 125.135 178.367 124.714 178.051C124.32 177.736 123.743 177.579 122.981 177.579C122.219 177.579 121.602 177.723 121.129 178.012C120.656 178.275 120.288 178.642 120.025 179.115C119.789 179.562 119.631 180.074 119.553 180.652C119.474 181.23 119.434 181.834 119.434 182.464V192H113.524V162.211H119.434ZM154.275 188.69C153.33 189.899 152.134 190.831 150.69 191.488C149.245 192.144 147.748 192.473 146.198 192.473C144.727 192.473 143.334 192.236 142.021 191.764C140.734 191.291 139.604 190.621 138.632 189.754C137.687 188.861 136.938 187.797 136.386 186.562C135.835 185.328 135.559 183.949 135.559 182.425C135.559 180.901 135.835 179.522 136.386 178.288C136.938 177.053 137.687 176.002 138.632 175.136C139.604 174.242 140.734 173.559 142.021 173.087C143.334 172.614 144.727 172.377 146.198 172.377C147.564 172.377 148.798 172.614 149.902 173.087C151.031 173.559 151.977 174.242 152.739 175.136C153.527 176.002 154.131 177.053 154.551 178.288C154.971 179.522 155.182 180.901 155.182 182.425V184.277H141.469C141.706 185.407 142.218 186.313 143.006 186.996C143.794 187.653 144.766 187.981 145.922 187.981C146.894 187.981 147.708 187.771 148.365 187.35C149.048 186.904 149.639 186.339 150.138 185.656L154.275 188.69ZM149.271 180.258C149.297 179.26 148.969 178.406 148.286 177.697C147.603 176.987 146.723 176.633 145.646 176.633C144.989 176.633 144.411 176.738 143.912 176.948C143.413 177.158 142.98 177.434 142.612 177.776C142.271 178.091 141.995 178.472 141.785 178.918C141.601 179.339 141.496 179.785 141.469 180.258H149.271ZM170.987 172.85H176.424V175.372H176.503C176.74 175.03 177.042 174.689 177.409 174.347C177.804 173.98 178.25 173.651 178.749 173.362C179.275 173.073 179.839 172.837 180.444 172.653C181.048 172.469 181.691 172.377 182.374 172.377C183.793 172.377 185.08 172.627 186.236 173.126C187.392 173.599 188.377 174.282 189.191 175.175C190.032 176.042 190.675 177.079 191.122 178.288C191.568 179.496 191.792 180.823 191.792 182.267C191.792 183.607 191.581 184.894 191.161 186.129C190.767 187.337 190.189 188.414 189.427 189.36C188.692 190.306 187.786 191.067 186.709 191.645C185.632 192.197 184.41 192.473 183.044 192.473C181.809 192.473 180.654 192.289 179.577 191.921C178.526 191.527 177.659 190.87 176.976 189.951H176.897V200.984H170.987V172.85ZM176.424 182.425C176.424 183.87 176.832 185.039 177.646 185.932C178.486 186.825 179.655 187.272 181.153 187.272C182.65 187.272 183.806 186.825 184.62 185.932C185.461 185.039 185.881 183.87 185.881 182.425C185.881 180.98 185.461 179.811 184.62 178.918C183.806 178.025 182.65 177.579 181.153 177.579C179.655 177.579 178.486 178.025 177.646 178.918C176.832 179.811 176.424 180.98 176.424 182.425ZM213.38 188.69C212.434 189.899 211.239 190.831 209.794 191.488C208.349 192.144 206.852 192.473 205.302 192.473C203.831 192.473 202.439 192.236 201.125 191.764C199.838 191.291 198.709 190.621 197.737 189.754C196.791 188.861 196.042 187.797 195.491 186.562C194.939 185.328 194.663 183.949 194.663 182.425C194.663 180.901 194.939 179.522 195.491 178.288C196.042 177.053 196.791 176.002 197.737 175.136C198.709 174.242 199.838 173.559 201.125 173.087C202.439 172.614 203.831 172.377 205.302 172.377C206.668 172.377 207.903 172.614 209.006 173.087C210.136 173.559 211.081 174.242 211.843 175.136C212.631 176.002 213.235 177.053 213.656 178.288C214.076 179.522 214.286 180.901 214.286 182.425V184.277H200.574C200.81 185.407 201.322 186.313 202.111 186.996C202.899 187.653 203.871 187.981 205.026 187.981C205.998 187.981 206.813 187.771 207.469 187.35C208.152 186.904 208.743 186.339 209.242 185.656L213.38 188.69ZM208.376 180.258C208.402 179.26 208.074 178.406 207.391 177.697C206.708 176.987 205.828 176.633 204.751 176.633C204.094 176.633 203.516 176.738 203.017 176.948C202.518 177.158 202.084 177.434 201.716 177.776C201.375 178.091 201.099 178.472 200.889 178.918C200.705 179.339 200.6 179.785 200.574 180.258H208.376ZM217.88 172.85H223.791V175.924H223.87C224.5 174.741 225.249 173.861 226.116 173.284C226.982 172.679 228.073 172.377 229.386 172.377C229.727 172.377 230.069 172.39 230.41 172.417C230.752 172.443 231.067 172.496 231.356 172.574V177.973C230.936 177.841 230.516 177.749 230.095 177.697C229.701 177.618 229.281 177.579 228.834 177.579C227.705 177.579 226.812 177.736 226.155 178.051C225.498 178.367 224.986 178.813 224.618 179.391C224.277 179.943 224.053 180.613 223.948 181.401C223.843 182.189 223.791 183.056 223.791 184.001V192H217.88V172.85ZM235.975 177.579H232.074V172.85H235.975V169.461C235.975 168.411 236.067 167.426 236.251 166.506C236.435 165.561 236.79 164.733 237.315 164.024C237.84 163.315 238.589 162.763 239.561 162.369C240.559 161.949 241.859 161.739 243.462 161.739C244.066 161.739 244.657 161.765 245.235 161.817C245.813 161.87 246.378 161.962 246.929 162.093L246.653 167.097C246.312 166.966 245.997 166.874 245.708 166.821C245.419 166.743 245.09 166.703 244.723 166.703C243.777 166.703 243.068 166.913 242.595 167.334C242.122 167.728 241.886 168.555 241.886 169.816V172.85H246.259V177.579H241.886V192H235.975V177.579ZM266.635 188.69C265.69 189.899 264.494 190.831 263.05 191.488C261.605 192.144 260.108 192.473 258.558 192.473C257.087 192.473 255.694 192.236 254.381 191.764C253.094 191.291 251.964 190.621 250.992 189.754C250.047 188.861 249.298 187.797 248.746 186.562C248.195 185.328 247.919 183.949 247.919 182.425C247.919 180.901 248.195 179.522 248.746 178.288C249.298 177.053 250.047 176.002 250.992 175.136C251.964 174.242 253.094 173.559 254.381 173.087C255.694 172.614 257.087 172.377 258.558 172.377C259.924 172.377 261.158 172.614 262.262 173.087C263.391 173.559 264.337 174.242 265.099 175.136C265.887 176.002 266.491 177.053 266.911 178.288C267.331 179.522 267.542 180.901 267.542 182.425V184.277H253.829C254.066 185.407 254.578 186.313 255.366 186.996C256.154 187.653 257.126 187.981 258.282 187.981C259.254 187.981 260.068 187.771 260.725 187.35C261.408 186.904 261.999 186.339 262.498 185.656L266.635 188.69ZM261.631 180.258C261.657 179.26 261.329 178.406 260.646 177.697C259.963 176.987 259.083 176.633 258.006 176.633C257.349 176.633 256.771 176.738 256.272 176.948C255.773 177.158 255.34 177.434 254.972 177.776C254.631 178.091 254.355 178.472 254.145 178.918C253.961 179.339 253.856 179.785 253.829 180.258H261.631ZM284.1 179.036C283.811 178.616 283.403 178.275 282.878 178.012C282.353 177.723 281.788 177.579 281.184 177.579C279.686 177.579 278.517 178.025 277.677 178.918C276.863 179.811 276.455 180.98 276.455 182.425C276.455 183.87 276.863 185.039 277.677 185.932C278.517 186.825 279.686 187.272 281.184 187.272C281.84 187.272 282.405 187.127 282.878 186.838C283.351 186.549 283.758 186.208 284.1 185.814L288 189.912C287.081 190.857 285.991 191.527 284.73 191.921C283.495 192.289 282.313 192.473 281.184 192.473C279.713 192.473 278.32 192.236 277.007 191.764C275.72 191.291 274.59 190.621 273.618 189.754C272.673 188.861 271.924 187.797 271.372 186.562C270.821 185.328 270.545 183.949 270.545 182.425C270.545 180.901 270.821 179.522 271.372 178.288C271.924 177.053 272.673 176.002 273.618 175.136C274.59 174.242 275.72 173.559 277.007 173.087C278.32 172.614 279.713 172.377 281.184 172.377C282.313 172.377 283.495 172.574 284.73 172.968C285.991 173.336 287.081 173.993 288 174.939L284.1 179.036ZM303.187 177.579H297.986V183.962C297.986 184.487 298.012 184.973 298.065 185.42C298.117 185.84 298.236 186.208 298.419 186.523C298.603 186.838 298.879 187.088 299.247 187.272C299.641 187.429 300.153 187.508 300.784 187.508C301.099 187.508 301.506 187.482 302.005 187.429C302.53 187.35 302.924 187.193 303.187 186.956V191.882C302.53 192.118 301.847 192.276 301.138 192.355C300.429 192.433 299.733 192.473 299.05 192.473C298.052 192.473 297.132 192.368 296.292 192.158C295.451 191.947 294.716 191.619 294.085 191.173C293.455 190.7 292.956 190.096 292.588 189.36C292.246 188.624 292.076 187.731 292.076 186.681V177.579H288.293V172.85H292.076V167.176H297.986V172.85H303.187V177.579ZM318.402 172.85H323.839V175.372H323.918C324.154 175.03 324.457 174.689 324.824 174.347C325.218 173.98 325.665 173.651 326.164 173.362C326.689 173.073 327.254 172.837 327.858 172.653C328.463 172.469 329.106 172.377 329.789 172.377C331.208 172.377 332.495 172.627 333.651 173.126C334.806 173.599 335.792 174.282 336.606 175.175C337.446 176.042 338.09 177.079 338.537 178.288C338.983 179.496 339.206 180.823 339.206 182.267C339.206 183.607 338.996 184.894 338.576 186.129C338.182 187.337 337.604 188.414 336.842 189.36C336.107 190.306 335.2 191.067 334.123 191.645C333.046 192.197 331.825 192.473 330.459 192.473C329.224 192.473 328.069 192.289 326.992 191.921C325.941 191.527 325.074 190.87 324.391 189.951H324.312V200.984H318.402V172.85ZM323.839 182.425C323.839 183.87 324.246 185.039 325.061 185.932C325.901 186.825 327.07 187.272 328.568 187.272C330.065 187.272 331.221 186.825 332.035 185.932C332.876 185.039 333.296 183.87 333.296 182.425C333.296 180.98 332.876 179.811 332.035 178.918C331.221 178.025 330.065 177.579 328.568 177.579C327.07 177.579 325.901 178.025 325.061 178.918C324.246 179.811 323.839 180.98 323.839 182.425ZM341.96 182.425C341.96 180.901 342.236 179.522 342.787 178.288C343.339 177.053 344.088 176.002 345.033 175.136C346.005 174.242 347.135 173.559 348.422 173.087C349.736 172.614 351.128 172.377 352.599 172.377C354.07 172.377 355.449 172.614 356.736 173.087C358.05 173.559 359.179 174.242 360.125 175.136C361.097 176.002 361.859 177.053 362.41 178.288C362.962 179.522 363.238 180.901 363.238 182.425C363.238 183.949 362.962 185.328 362.41 186.562C361.859 187.797 361.097 188.861 360.125 189.754C359.179 190.621 358.05 191.291 356.736 191.764C355.449 192.236 354.07 192.473 352.599 192.473C351.128 192.473 349.736 192.236 348.422 191.764C347.135 191.291 346.005 190.621 345.033 189.754C344.088 188.861 343.339 187.797 342.787 186.562C342.236 185.328 341.96 183.949 341.96 182.425ZM347.87 182.425C347.87 183.87 348.278 185.039 349.092 185.932C349.933 186.825 351.102 187.272 352.599 187.272C354.096 187.272 355.252 186.825 356.066 185.932C356.907 185.039 357.327 183.87 357.327 182.425C357.327 180.98 356.907 179.811 356.066 178.918C355.252 178.025 354.096 177.579 352.599 177.579C351.102 177.579 349.933 178.025 349.092 178.918C348.278 179.811 347.87 180.98 347.87 182.425ZM377.555 178.485C376.688 177.408 375.545 176.869 374.127 176.869C373.628 176.869 373.142 176.987 372.669 177.224C372.196 177.46 371.96 177.867 371.96 178.445C371.96 178.918 372.196 179.273 372.669 179.509C373.168 179.719 373.785 179.916 374.521 180.1C375.283 180.258 376.084 180.442 376.924 180.652C377.791 180.836 378.592 181.138 379.328 181.558C380.09 181.979 380.707 182.556 381.18 183.292C381.679 184.001 381.928 184.96 381.928 186.168C381.928 187.403 381.653 188.427 381.101 189.242C380.576 190.03 379.893 190.673 379.052 191.173C378.211 191.645 377.266 191.974 376.215 192.158C375.164 192.368 374.127 192.473 373.102 192.473C371.763 192.473 370.41 192.289 369.044 191.921C367.678 191.527 366.522 190.844 365.576 189.872L369.162 185.893C369.714 186.576 370.318 187.101 370.974 187.469C371.657 187.81 372.446 187.981 373.339 187.981C374.022 187.981 374.639 187.889 375.191 187.705C375.742 187.495 376.018 187.127 376.018 186.602C376.018 186.103 375.768 185.735 375.269 185.499C374.797 185.236 374.179 185.026 373.417 184.868C372.682 184.684 371.881 184.5 371.014 184.316C370.173 184.106 369.372 183.804 368.61 183.41C367.875 183.016 367.257 182.464 366.758 181.755C366.286 181.02 366.049 180.048 366.049 178.839C366.049 177.71 366.272 176.738 366.719 175.924C367.192 175.109 367.796 174.439 368.531 173.914C369.293 173.389 370.16 173.008 371.132 172.771C372.104 172.509 373.089 172.377 374.087 172.377C375.348 172.377 376.622 172.561 377.909 172.929C379.197 173.297 380.287 173.953 381.18 174.899L377.555 178.485ZM385.037 172.85H390.947V192H385.037V172.85ZM384.564 166.821C384.564 165.876 384.893 165.075 385.549 164.418C386.232 163.735 387.047 163.393 387.992 163.393C388.938 163.393 389.739 163.735 390.396 164.418C391.079 165.075 391.42 165.876 391.42 166.821C391.42 167.767 391.079 168.581 390.396 169.264C389.739 169.921 388.938 170.25 387.992 170.25C387.047 170.25 386.232 169.921 385.549 169.264C384.893 168.581 384.564 167.767 384.564 166.821ZM408.236 177.579H403.035V183.962C403.035 184.487 403.061 184.973 403.114 185.42C403.166 185.84 403.285 186.208 403.468 186.523C403.652 186.838 403.928 187.088 404.296 187.272C404.69 187.429 405.202 187.508 405.833 187.508C406.148 187.508 406.555 187.482 407.054 187.429C407.579 187.35 407.973 187.193 408.236 186.956V191.882C407.579 192.118 406.896 192.276 406.187 192.355C405.478 192.433 404.782 192.473 404.099 192.473C403.101 192.473 402.181 192.368 401.341 192.158C400.5 191.947 399.765 191.619 399.134 191.173C398.504 190.7 398.005 190.096 397.637 189.36C397.295 188.624 397.125 187.731 397.125 186.681V177.579H393.342V172.85H397.125V167.176H403.035V172.85H408.236V177.579ZM411.319 172.85H417.229V192H411.319V172.85ZM410.846 166.821C410.846 165.876 411.174 165.075 411.831 164.418C412.514 163.735 413.328 163.393 414.274 163.393C415.219 163.393 416.021 163.735 416.677 164.418C417.36 165.075 417.702 165.876 417.702 166.821C417.702 167.767 417.36 168.581 416.677 169.264C416.021 169.921 415.219 170.25 414.274 170.25C413.328 170.25 412.514 169.921 411.831 169.264C411.174 168.581 410.846 167.767 410.846 166.821ZM420.766 182.425C420.766 180.901 421.042 179.522 421.593 178.288C422.145 177.053 422.894 176.002 423.839 175.136C424.811 174.242 425.941 173.559 427.228 173.087C428.542 172.614 429.934 172.377 431.405 172.377C432.876 172.377 434.255 172.614 435.542 173.087C436.856 173.559 437.985 174.242 438.931 175.136C439.903 176.002 440.665 177.053 441.216 178.288C441.768 179.522 442.044 180.901 442.044 182.425C442.044 183.949 441.768 185.328 441.216 186.562C440.665 187.797 439.903 188.861 438.931 189.754C437.985 190.621 436.856 191.291 435.542 191.764C434.255 192.236 432.876 192.473 431.405 192.473C429.934 192.473 428.542 192.236 427.228 191.764C425.941 191.291 424.811 190.621 423.839 189.754C422.894 188.861 422.145 187.797 421.593 186.562C421.042 185.328 420.766 183.949 420.766 182.425ZM426.676 182.425C426.676 183.87 427.084 185.039 427.898 185.932C428.739 186.825 429.907 187.272 431.405 187.272C432.902 187.272 434.058 186.825 434.872 185.932C435.713 185.039 436.133 183.87 436.133 182.425C436.133 180.98 435.713 179.811 434.872 178.918C434.058 178.025 432.902 177.579 431.405 177.579C429.907 177.579 428.739 178.025 427.898 178.918C427.084 179.811 426.676 180.98 426.676 182.425ZM445.525 172.85H451.199V175.451H451.278C451.462 175.083 451.724 174.715 452.066 174.347C452.407 173.98 452.814 173.651 453.287 173.362C453.76 173.073 454.299 172.837 454.903 172.653C455.507 172.469 456.164 172.377 456.873 172.377C458.37 172.377 459.579 172.614 460.498 173.087C461.417 173.533 462.127 174.164 462.626 174.978C463.151 175.792 463.506 176.751 463.69 177.854C463.874 178.958 463.966 180.153 463.966 181.44V192H458.055V182.622C458.055 182.07 458.029 181.506 457.976 180.928C457.95 180.324 457.832 179.772 457.622 179.273C457.438 178.774 457.136 178.367 456.715 178.051C456.321 177.736 455.743 177.579 454.982 177.579C454.22 177.579 453.603 177.723 453.13 178.012C452.657 178.275 452.289 178.642 452.026 179.115C451.79 179.562 451.632 180.074 451.554 180.652C451.475 181.23 451.435 181.834 451.435 182.464V192H445.525V172.85Z" fill="#304BE0"/>
</svg>
