<svg width="200" height="200" viewBox="0 0 200 200" fill="none" xmlns="http://www.w3.org/2000/svg">
<rect width="200" height="200" fill="#E5E5E5"/>
<g clip-path="url(#clip0)">
<rect width="1440" height="1848" transform="translate(-467 -822)" fill="white"/>
<rect width="200" height="200" fill="#F9FAFF"/>
<circle cy="9" r="25" fill="#F6EAFF"/>
<path d="M-6.31745 13.2801L1.01588 6.18675C1.22921 5.97342 1.45143 5.75119 1.68255 5.52008C1.91366 5.27119 2.1181 5.01342 2.29588 4.74675C2.49143 4.48008 2.65143 4.20453 2.77588 3.92008C2.90032 3.61786 2.96255 3.30675 2.96255 2.98675C2.96255 2.59564 2.88255 2.24897 2.72255 1.94675C2.58032 1.64453 2.38477 1.38675 2.13588 1.17342C1.88699 0.960082 1.59366 0.800082 1.25588 0.693415C0.935879 0.568971 0.589213 0.506749 0.215879 0.506749C-0.584121 0.506749 -1.2419 0.73786 -1.75745 1.20008C-2.27301 1.6623 -2.58412 2.28453 -2.69079 3.06675L-6.05079 2.80008C-5.97968 1.92897 -5.77523 1.16453 -5.43745 0.506749C-5.0819 -0.168807 -4.62857 -0.728807 -4.07745 -1.17325C-3.52634 -1.6177 -2.88634 -1.95547 -2.15745 -2.18658C-1.42857 -2.4177 -0.637454 -2.53325 0.215879 -2.53325C1.06921 -2.53325 1.86032 -2.4177 2.58921 -2.18658C3.33588 -1.97325 3.98477 -1.64436 4.53588 -1.19992C5.08699 -0.773251 5.52255 -0.22214 5.84255 0.453415C6.16255 1.12897 6.32255 1.92008 6.32255 2.82675C6.32255 4.01786 6.04699 5.04897 5.49588 5.92008C4.96255 6.77342 4.26921 7.59119 3.41588 8.37341L-2.42412 13.7867H6.32255V16.6667H-6.31745V13.2801Z" fill="#CB89FF"/>
<g filter="url(#filter0_d)">
<rect x="46" y="33" width="108" height="135" rx="10.8" fill="#DFBBFC"/>
<rect x="57.07" y="54.8701" width="85.86" height="21.06" rx="0.81" stroke="#F6EAFF" stroke-width="0.54"/>
<rect x="62.2" y="58.9199" width="12.96" height="12.96" rx="2.16" fill="white"/>
<rect x="62.2" y="112.92" width="12.96" height="12.96" rx="2.16" fill="white"/>
<rect x="62.2" y="139.92" width="12.96" height="12.96" rx="2.16" fill="white"/>
<rect x="79.48" y="58.9199" width="17.28" height="1.08" fill="#FBF5FF"/>
<rect x="79.48" y="65.3999" width="59.4" height="1.08" fill="#FBF5FF"/>
<rect x="79.48" y="71.8799" width="39.96" height="1.08" fill="#FBF5FF"/>
<rect x="79.48" y="62.1599" width="56.16" height="1.08" fill="#FBF5FF"/>
<rect x="79.48" y="68.6399" width="51.84" height="1.08" fill="#FBF5FF"/>
<rect x="57.07" y="81.8701" width="85.86" height="21.06" rx="0.81" fill="#EED8FF" stroke="#F6EAFF" stroke-width="0.54"/>
<rect x="62.2" y="85.9199" width="12.96" height="12.96" rx="2.16" fill="white"/>
<rect x="79.48" y="85.9199" width="17.28" height="1.08" fill="white"/>
<rect x="79.48" y="92.3999" width="59.4" height="1.08" fill="white"/>
<rect x="79.48" y="98.8799" width="39.96" height="1.08" fill="white"/>
<rect x="79.48" y="89.1599" width="56.16" height="1.08" fill="white"/>
<rect x="79.48" y="95.6399" width="51.84" height="1.08" fill="white"/>
<rect x="57.07" y="108.87" width="85.86" height="21.06" rx="0.81" stroke="#F6EAFF" stroke-width="0.54"/>
<rect x="79.48" y="112.92" width="17.28" height="1.08" fill="#FBF5FF"/>
<rect x="79.48" y="119.4" width="59.4" height="1.08" fill="#FBF5FF"/>
<rect x="79.48" y="125.88" width="39.96" height="1.08" fill="#FBF5FF"/>
<rect x="79.48" y="116.16" width="56.16" height="1.08" fill="#FBF5FF"/>
<rect x="79.48" y="122.64" width="51.84" height="1.08" fill="#FBF5FF"/>
<rect x="57.07" y="135.87" width="85.86" height="21.06" rx="0.81" stroke="#F6EAFF" stroke-width="0.54"/>
<rect x="79.48" y="139.92" width="17.28" height="1.08" fill="#FBF5FF"/>
<rect x="79.48" y="146.4" width="59.4" height="1.08" fill="#FBF5FF"/>
<rect x="79.48" y="152.88" width="39.96" height="1.08" fill="#FBF5FF"/>
<rect x="79.48" y="143.16" width="56.16" height="1.08" fill="#FBF5FF"/>
<rect x="79.48" y="149.64" width="51.84" height="1.08" fill="#FBF5FF"/>
<path d="M59.4352 43.4429H60.5498L63.2109 49.5601H61.6903L61.1632 48.2641H58.7872L58.2775 49.5601H56.7914L59.4352 43.4429ZM59.9536 45.2228L59.2106 47.1236H60.7053L59.9536 45.2228ZM66.5046 46.7175C66.4412 46.6253 66.352 46.5505 66.2368 46.4929C66.1216 46.4295 65.9977 46.3978 65.8652 46.3978C65.5369 46.3978 65.2806 46.4957 65.0963 46.6916C64.9177 46.8874 64.8284 47.1437 64.8284 47.4605C64.8284 47.7773 64.9177 48.0337 65.0963 48.2295C65.2806 48.4253 65.5369 48.5233 65.8652 48.5233C66.0092 48.5233 66.1331 48.4916 66.2368 48.4282C66.3404 48.3649 66.4297 48.29 66.5046 48.2036L67.36 49.1021C67.1584 49.3095 66.9193 49.4564 66.6428 49.5428C66.3721 49.6234 66.1129 49.6637 65.8652 49.6637C65.5427 49.6637 65.2374 49.6119 64.9494 49.5082C64.6672 49.4045 64.4195 49.2577 64.2064 49.0676C63.999 48.8717 63.8348 48.6385 63.7139 48.3677C63.5929 48.097 63.5324 47.7946 63.5324 47.4605C63.5324 47.1265 63.5929 46.8241 63.7139 46.5533C63.8348 46.2826 63.999 46.0522 64.2064 45.8621C64.4195 45.6663 64.6672 45.5165 64.9494 45.4129C65.2374 45.3092 65.5427 45.2573 65.8652 45.2573C66.1129 45.2573 66.3721 45.3005 66.6428 45.3869C66.9193 45.4676 67.1584 45.6116 67.36 45.8189L66.5046 46.7175ZM70.69 46.3978H69.5495V47.7975C69.5495 47.9127 69.5553 48.0193 69.5668 48.1172C69.5783 48.2093 69.6042 48.29 69.6446 48.3591C69.6849 48.4282 69.7454 48.4829 69.826 48.5233C69.9124 48.5578 70.0247 48.5751 70.163 48.5751C70.2321 48.5751 70.3214 48.5693 70.4308 48.5578C70.546 48.5405 70.6324 48.506 70.69 48.4541V49.5341C70.546 49.586 70.3962 49.6205 70.2407 49.6378C70.0852 49.6551 69.9326 49.6637 69.7828 49.6637C69.5639 49.6637 69.3623 49.6407 69.178 49.5946C68.9937 49.5485 68.8324 49.4765 68.6942 49.3786C68.5559 49.2749 68.4465 49.1425 68.3658 48.9812C68.291 48.8199 68.2535 48.6241 68.2535 48.3937V46.3978H67.4241V45.361H68.2535V44.1169H69.5495V45.361H70.69V46.3978ZM71.3659 45.361H72.6619V49.5601H71.3659V45.361ZM71.2622 44.0391C71.2622 43.8317 71.3342 43.6561 71.4782 43.5121C71.628 43.3623 71.8065 43.2874 72.0139 43.2874C72.2212 43.2874 72.3969 43.3623 72.5409 43.5121C72.6907 43.6561 72.7656 43.8317 72.7656 44.0391C72.7656 44.2465 72.6907 44.425 72.5409 44.5748C72.3969 44.7188 72.2212 44.7908 72.0139 44.7908C71.8065 44.7908 71.628 44.7188 71.4782 44.5748C71.3342 44.425 71.2622 44.2465 71.2622 44.0391ZM73.1523 45.361H74.552L75.6147 48.2122H75.632L76.617 45.361H77.9216L76.2627 49.5601H74.889L73.1523 45.361ZM82.3683 48.8343C82.1609 49.0993 81.8989 49.3037 81.5821 49.4477C81.2653 49.5917 80.9369 49.6637 80.5971 49.6637C80.2745 49.6637 79.9693 49.6119 79.6813 49.5082C79.399 49.4045 79.1513 49.2577 78.9382 49.0676C78.7309 48.8717 78.5667 48.6385 78.4457 48.3677C78.3248 48.097 78.2643 47.7946 78.2643 47.4605C78.2643 47.1265 78.3248 46.8241 78.4457 46.5533C78.5667 46.2826 78.7309 46.0522 78.9382 45.8621C79.1513 45.6663 79.399 45.5165 79.6813 45.4129C79.9693 45.3092 80.2745 45.2573 80.5971 45.2573C80.8966 45.2573 81.1673 45.3092 81.4093 45.4129C81.6569 45.5165 81.8643 45.6663 82.0313 45.8621C82.2041 46.0522 82.3366 46.2826 82.4288 46.5533C82.5209 46.8241 82.567 47.1265 82.567 47.4605V47.8666H79.5603C79.6121 48.1143 79.7245 48.313 79.8973 48.4628C80.0701 48.6068 80.2832 48.6788 80.5366 48.6788C80.7497 48.6788 80.9283 48.6327 81.0723 48.5405C81.2221 48.4426 81.3517 48.3188 81.4611 48.169L82.3683 48.8343ZM81.271 46.9853C81.2768 46.7665 81.2048 46.5793 81.055 46.4237C80.9053 46.2682 80.7123 46.1905 80.4761 46.1905C80.3321 46.1905 80.2054 46.2135 80.096 46.2596C79.9865 46.3057 79.8915 46.3661 79.8109 46.441C79.736 46.5101 79.6755 46.5937 79.6294 46.6916C79.5891 46.7837 79.5661 46.8817 79.5603 46.9853H81.271ZM83.3724 43.0282H84.6684V49.5601H83.3724V43.0282ZM88.0187 50.2426C87.9323 50.4673 87.8488 50.666 87.7682 50.8388C87.6875 51.0116 87.5838 51.1556 87.4571 51.2708C87.3362 51.3917 87.1806 51.481 86.9906 51.5386C86.8005 51.602 86.5499 51.6337 86.2389 51.6337C85.9048 51.6337 85.5822 51.5818 85.2712 51.4781L85.444 50.4154C85.6398 50.5018 85.8414 50.545 86.0488 50.545C86.1928 50.545 86.3109 50.5277 86.403 50.4932C86.4952 50.4644 86.5701 50.4183 86.6277 50.3549C86.691 50.2973 86.7429 50.2253 86.7832 50.1389C86.8235 50.0525 86.8667 49.9517 86.9128 49.8365L87.0078 49.5946L85.1675 45.361H86.5672L87.6472 48.1345H87.6645L88.589 45.361H89.9195L88.0187 50.2426ZM94.253 43.0282V45.9313H94.2703C94.2991 45.8506 94.3481 45.77 94.4172 45.6893C94.4863 45.6087 94.5698 45.5367 94.6677 45.4733C94.7657 45.41 94.8809 45.3581 95.0133 45.3178C95.1458 45.2775 95.2898 45.2573 95.4453 45.2573C95.7737 45.2573 96.0386 45.3092 96.2402 45.4129C96.4418 45.5108 96.5973 45.649 96.7068 45.8276C96.822 46.0061 96.8997 46.2164 96.9401 46.4583C96.9804 46.7002 97.0005 46.9623 97.0005 47.2445V49.5601H95.7045V47.5037C95.7045 47.3828 95.6988 47.2589 95.6873 47.1322C95.6815 46.9997 95.6556 46.8788 95.6095 46.7693C95.5692 46.6599 95.5029 46.5706 95.4108 46.5015C95.3244 46.4324 95.1977 46.3978 95.0306 46.3978C94.8636 46.3978 94.7282 46.4295 94.6245 46.4929C94.5209 46.5505 94.4402 46.6311 94.3826 46.7348C94.3308 46.8327 94.2962 46.945 94.2789 47.0717C94.2617 47.1985 94.253 47.3309 94.253 47.4692V49.5601H92.957V43.0282H94.253ZM97.9356 45.361H99.2316V49.5601H97.9356V45.361ZM97.8319 44.0391C97.8319 43.8317 97.9039 43.6561 98.0479 43.5121C98.1976 43.3623 98.3762 43.2874 98.5836 43.2874C98.7909 43.2874 98.9666 43.3623 99.1106 43.5121C99.2604 43.6561 99.3352 43.8317 99.3352 44.0391C99.3352 44.2465 99.2604 44.425 99.1106 44.5748C98.9666 44.7188 98.7909 44.7908 98.5836 44.7908C98.3762 44.7908 98.1976 44.7188 98.0479 44.5748C97.9039 44.425 97.8319 44.2465 97.8319 44.0391ZM100.163 45.361H101.459V46.0349H101.476C101.614 45.7757 101.778 45.5828 101.968 45.4561C102.158 45.3236 102.398 45.2573 102.686 45.2573C102.76 45.2573 102.835 45.2602 102.91 45.266C102.985 45.2717 103.054 45.2833 103.118 45.3005V46.4842C103.025 46.4554 102.933 46.4353 102.841 46.4237C102.755 46.4065 102.662 46.3978 102.565 46.3978C102.317 46.3978 102.121 46.4324 101.977 46.5015C101.833 46.5706 101.721 46.6685 101.64 46.7953C101.565 46.9162 101.516 47.0631 101.493 47.2359C101.47 47.4087 101.459 47.5988 101.459 47.8061V49.5601H100.163V45.361ZM103.698 45.361H104.994V49.5601H103.698V45.361ZM103.595 44.0391C103.595 43.8317 103.667 43.6561 103.811 43.5121C103.96 43.3623 104.139 43.2874 104.346 43.2874C104.554 43.2874 104.729 43.3623 104.873 43.5121C105.023 43.6561 105.098 43.8317 105.098 44.0391C105.098 44.2465 105.023 44.425 104.873 44.5748C104.729 44.7188 104.554 44.7908 104.346 44.7908C104.139 44.7908 103.96 44.7188 103.811 44.5748C103.667 44.425 103.595 44.2465 103.595 44.0391ZM105.925 45.361H107.17V45.9313H107.187C107.227 45.8506 107.285 45.77 107.36 45.6893C107.435 45.6087 107.524 45.5367 107.628 45.4733C107.731 45.41 107.849 45.3581 107.982 45.3178C108.114 45.2775 108.258 45.2573 108.414 45.2573C108.742 45.2573 109.007 45.3092 109.209 45.4129C109.41 45.5108 109.566 45.649 109.675 45.8276C109.79 46.0061 109.868 46.2164 109.909 46.4583C109.949 46.7002 109.969 46.9623 109.969 47.2445V49.5601H108.673V47.5037C108.673 47.3828 108.667 47.2589 108.656 47.1322C108.65 46.9997 108.624 46.8788 108.578 46.7693C108.538 46.6599 108.471 46.5706 108.379 46.5015C108.293 46.4324 108.166 46.3978 107.999 46.3978C107.832 46.3978 107.697 46.4295 107.593 46.4929C107.489 46.5505 107.409 46.6311 107.351 46.7348C107.299 46.8327 107.265 46.945 107.247 47.0717C107.23 47.1985 107.221 47.3309 107.221 47.4692V49.5601H105.925V45.361ZM115.293 49.2058C115.293 50.0007 115.092 50.6026 114.688 51.0116C114.291 51.4263 113.683 51.6337 112.865 51.6337C112.491 51.6337 112.122 51.5905 111.759 51.5041C111.396 51.4234 111.062 51.2621 110.757 51.0202L111.474 49.9489C111.676 50.1159 111.886 50.2484 112.105 50.3463C112.33 50.4442 112.574 50.4932 112.839 50.4932C113.237 50.4932 113.528 50.3953 113.712 50.1994C113.902 50.0093 113.997 49.7645 113.997 49.465V49.0589H113.98C113.83 49.2605 113.643 49.4045 113.418 49.4909C113.199 49.5716 112.992 49.6119 112.796 49.6119C112.485 49.6119 112.203 49.5601 111.949 49.4564C111.696 49.3469 111.477 49.1972 111.293 49.0071C111.114 48.8113 110.976 48.5809 110.878 48.3159C110.78 48.0509 110.731 47.7601 110.731 47.4433C110.731 47.1668 110.774 46.8961 110.861 46.6311C110.953 46.3661 111.08 46.1329 111.241 45.9313C111.408 45.7297 111.61 45.5684 111.846 45.4474C112.082 45.3207 112.35 45.2573 112.649 45.2573C112.834 45.2573 113.001 45.2775 113.15 45.3178C113.306 45.3581 113.444 45.41 113.565 45.4733C113.686 45.5367 113.79 45.6087 113.876 45.6893C113.963 45.7642 114.032 45.8391 114.084 45.914H114.101V45.361H115.293V49.2058ZM112.027 47.4346C112.027 47.5729 112.053 47.7053 112.105 47.8321C112.157 47.953 112.229 48.0625 112.321 48.1604C112.419 48.2525 112.528 48.3274 112.649 48.385C112.776 48.4426 112.914 48.4714 113.064 48.4714C113.208 48.4714 113.343 48.4426 113.47 48.385C113.597 48.3274 113.706 48.2525 113.798 48.1604C113.896 48.0625 113.971 47.953 114.023 47.8321C114.075 47.7053 114.101 47.5729 114.101 47.4346C114.101 47.2964 114.075 47.1668 114.023 47.0458C113.971 46.9191 113.896 46.8097 113.798 46.7175C113.706 46.6196 113.597 46.5418 113.47 46.4842C113.343 46.4266 113.208 46.3978 113.064 46.3978C112.914 46.3978 112.776 46.4266 112.649 46.4842C112.528 46.5418 112.419 46.6196 112.321 46.7175C112.229 46.8097 112.157 46.9191 112.105 47.0458C112.053 47.1668 112.027 47.2964 112.027 47.4346Z" fill="white"/>
</g>
<g filter="url(#filter1_d)">
<path d="M136.16 99.4419C135.767 98.6452 136.53 97.7694 137.373 98.0503L162.626 106.466C163.538 106.77 163.538 108.06 162.626 108.364L153.009 111.565C152.676 111.676 152.426 111.953 152.349 112.295L149.896 123.238C149.69 124.158 148.441 124.308 148.024 123.462L136.16 99.4419Z" fill="white"/>
<path d="M136.609 99.2204C136.412 98.8221 136.793 98.3842 137.215 98.5247L162.468 106.94C162.924 107.092 162.924 107.737 162.468 107.889L152.851 111.09C152.352 111.257 151.976 111.672 151.861 112.186L149.408 123.129C149.305 123.589 148.681 123.664 148.472 123.241L136.609 99.2204Z" stroke="#C395E7"/>
</g>
</g>
<defs>
<filter id="filter0_d" x="31" y="22" width="138" height="165" filterUnits="userSpaceOnUse" color-interpolation-filters="sRGB">
<feFlood flood-opacity="0" result="BackgroundImageFix"/>
<feColorMatrix in="SourceAlpha" type="matrix" values="0 0 0 0 0 0 0 0 0 0 0 0 0 0 0 0 0 0 127 0"/>
<feOffset dy="4"/>
<feGaussianBlur stdDeviation="7.5"/>
<feColorMatrix type="matrix" values="0 0 0 0 0.796078 0 0 0 0 0.537255 0 0 0 0 1 0 0 0 0.15 0"/>
<feBlend mode="normal" in2="BackgroundImageFix" result="effect1_dropShadow"/>
<feBlend mode="normal" in="SourceGraphic" in2="effect1_dropShadow" result="shape"/>
</filter>
<filter id="filter1_d" x="121.054" y="86.9966" width="57.2561" height="56.0231" filterUnits="userSpaceOnUse" color-interpolation-filters="sRGB">
<feFlood flood-opacity="0" result="BackgroundImageFix"/>
<feColorMatrix in="SourceAlpha" type="matrix" values="0 0 0 0 0 0 0 0 0 0 0 0 0 0 0 0 0 0 127 0"/>
<feOffset dy="4"/>
<feGaussianBlur stdDeviation="7.5"/>
<feColorMatrix type="matrix" values="0 0 0 0 0.796078 0 0 0 0 0.537255 0 0 0 0 1 0 0 0 0.2 0"/>
<feBlend mode="normal" in2="BackgroundImageFix" result="effect1_dropShadow"/>
<feBlend mode="normal" in="SourceGraphic" in2="effect1_dropShadow" result="shape"/>
</filter>
<clipPath id="clip0">
<rect width="1440" height="1848" fill="white" transform="translate(-467 -822)"/>
</clipPath>
</defs>
</svg>
