<svg width="200" height="200" viewBox="0 0 200 200" fill="none" xmlns="http://www.w3.org/2000/svg">
<rect width="200" height="200" fill="#E5E5E5"/>
<g clip-path="url(#clip0)">
<rect width="1440" height="1848" transform="translate(-1087 -822)" fill="white"/>
<rect width="200" height="200" fill="#F9FAFF"/>
<circle cy="9" r="25" fill="#DEE1FF"/>
<path d="M1.04279 12.8265H-6.98388V9.65317L0.616124 -2.2135H4.24279V9.9465H6.98946V12.8265H4.24279V16.6665H1.04279V12.8265ZM1.04279 2.31984H0.989457L-3.73054 9.9465H1.04279V2.31984Z" fill="#8691FA"/>
<g filter="url(#filter0_d)">
<rect x="30" y="47" width="120" height="50" rx="5" fill="#CACFFF"/>
</g>
<circle cx="57" cy="72" r="15" fill="#F1F2FF"/>
<circle cx="57" cy="70" r="6" fill="white"/>
<mask id="mask0" mask-type="alpha" maskUnits="userSpaceOnUse" x="42" y="57" width="30" height="30">
<circle cx="57" cy="72" r="15" fill="#F1F2FF"/>
</mask>
<g mask="url(#mask0)">
<path d="M46.1538 87.2308C45.6049 88.5481 46.5728 90 48 90H66C67.4272 90 68.3951 88.5481 67.8462 87.2308L64.5128 79.2308C64.2023 78.4855 63.4741 78 62.6667 78H51.3333C50.5259 78 49.7977 78.4855 49.4872 79.2308L46.1538 87.2308Z" fill="white"/>
</g>
<path d="M80.08 66.38H82.42V70.34H86.965V66.38H89.305V77H86.965V72.41H82.42V77H80.08V66.38ZM91.2068 69.71H93.4568V77H91.2068V69.71ZM91.0268 67.415C91.0268 67.055 91.1518 66.75 91.4018 66.5C91.6618 66.24 91.9718 66.11 92.3318 66.11C92.6918 66.11 92.9968 66.24 93.2468 66.5C93.5068 66.75 93.6368 67.055 93.6368 67.415C93.6368 67.775 93.5068 68.085 93.2468 68.345C92.9968 68.595 92.6918 68.72 92.3318 68.72C91.9718 68.72 91.6618 68.595 91.4018 68.345C91.1518 68.085 91.0268 67.775 91.0268 67.415ZM95.0733 69.71H97.3233V70.88H97.3533C97.5933 70.43 97.8783 70.095 98.2083 69.875C98.5383 69.645 98.9533 69.53 99.4533 69.53C99.5833 69.53 99.7133 69.535 99.8433 69.545C99.9733 69.555 100.093 69.575 100.203 69.605V71.66C100.043 71.61 99.8833 71.575 99.7233 71.555C99.5733 71.525 99.4133 71.51 99.2433 71.51C98.8133 71.51 98.4733 71.57 98.2233 71.69C97.9733 71.81 97.7783 71.98 97.6383 72.2C97.5083 72.41 97.4233 72.665 97.3833 72.965C97.3433 73.265 97.3233 73.595 97.3233 73.955V77H95.0733V69.71ZM107.818 75.74C107.458 76.2 107.003 76.555 106.453 76.805C105.903 77.055 105.333 77.18 104.743 77.18C104.183 77.18 103.653 77.09 103.153 76.91C102.663 76.73 102.233 76.475 101.863 76.145C101.503 75.805 101.218 75.4 101.008 74.93C100.798 74.46 100.693 73.935 100.693 73.355C100.693 72.775 100.798 72.25 101.008 71.78C101.218 71.31 101.503 70.91 101.863 70.58C102.233 70.24 102.663 69.98 103.153 69.8C103.653 69.62 104.183 69.53 104.743 69.53C105.263 69.53 105.733 69.62 106.153 69.8C106.583 69.98 106.943 70.24 107.233 70.58C107.533 70.91 107.763 71.31 107.923 71.78C108.083 72.25 108.163 72.775 108.163 73.355V74.06H102.943C103.033 74.49 103.228 74.835 103.528 75.095C103.828 75.345 104.198 75.47 104.638 75.47C105.008 75.47 105.318 75.39 105.568 75.23C105.828 75.06 106.053 74.845 106.243 74.585L107.818 75.74ZM105.913 72.53C105.923 72.15 105.798 71.825 105.538 71.555C105.278 71.285 104.943 71.15 104.533 71.15C104.283 71.15 104.063 71.19 103.873 71.27C103.683 71.35 103.518 71.455 103.378 71.585C103.248 71.705 103.143 71.85 103.063 72.02C102.993 72.18 102.953 72.35 102.943 72.53H105.913ZM117.181 77H115.111V76.04H115.081C114.991 76.17 114.871 76.305 114.721 76.445C114.581 76.575 114.411 76.695 114.211 76.805C114.021 76.915 113.806 77.005 113.566 77.075C113.336 77.145 113.096 77.18 112.846 77.18C112.306 77.18 111.816 77.09 111.376 76.91C110.936 76.72 110.556 76.46 110.236 76.13C109.926 75.79 109.686 75.39 109.516 74.93C109.346 74.47 109.261 73.965 109.261 73.415C109.261 72.905 109.336 72.42 109.486 71.96C109.646 71.49 109.866 71.075 110.146 70.715C110.436 70.355 110.786 70.07 111.196 69.86C111.606 69.64 112.071 69.53 112.591 69.53C113.061 69.53 113.496 69.605 113.896 69.755C114.306 69.895 114.641 70.14 114.901 70.49H114.931V65.66H117.181V77ZM115.111 73.355C115.111 72.805 114.951 72.36 114.631 72.02C114.321 71.68 113.881 71.51 113.311 71.51C112.741 71.51 112.296 71.68 111.976 72.02C111.666 72.36 111.511 72.805 111.511 73.355C111.511 73.905 111.666 74.35 111.976 74.69C112.296 75.03 112.741 75.2 113.311 75.2C113.881 75.2 114.321 75.03 114.631 74.69C114.951 74.35 115.111 73.905 115.111 73.355Z" fill="white"/>
<path d="M124 69.7826L128.138 75L136 65" stroke="white" stroke-width="3"/>
<path d="M53.6842 109H42C43.0386 136.004 60.3918 140.374 68.9386 139.509V146.974L79 135.939L68.9386 124.904V132.368C54.6579 132.368 52.8187 116.465 53.6842 109Z" fill="#AFB7FF"/>
<g filter="url(#filter1_d)">
<rect x="90" y="116" width="80" height="40" rx="5" fill="#9CA5FF"/>
</g>
<path d="M103.92 130.2C104.46 130.2 105.02 130.27 105.6 130.41C106.18 130.55 106.69 130.795 107.13 131.145L105.69 132.9C105.45 132.69 105.175 132.54 104.865 132.45C104.555 132.35 104.24 132.29 103.92 132.27V134.655L105.36 135.075C106.02 135.275 106.545 135.605 106.935 136.065C107.335 136.515 107.535 137.09 107.535 137.79C107.535 138.32 107.44 138.785 107.25 139.185C107.06 139.585 106.8 139.925 106.47 140.205C106.14 140.485 105.755 140.705 105.315 140.865C104.875 141.025 104.41 141.13 103.92 141.18V142.23H102.93V141.18C102.27 141.18 101.61 141.09 100.95 140.91C100.3 140.73 99.725 140.415 99.225 139.965L100.815 138.18C101.075 138.5 101.39 138.73 101.76 138.87C102.13 139 102.52 139.08 102.93 139.11V136.575L101.835 136.245C101.075 136.005 100.495 135.67 100.095 135.24C99.705 134.8 99.51 134.2 99.51 133.44C99.51 132.97 99.605 132.545 99.795 132.165C99.985 131.785 100.235 131.46 100.545 131.19C100.865 130.92 101.23 130.7 101.64 130.53C102.06 130.36 102.49 130.25 102.93 130.2V129.15H103.92V130.2ZM102.93 132.315C102.65 132.375 102.4 132.48 102.18 132.63C101.96 132.78 101.85 133.015 101.85 133.335C101.85 133.565 101.895 133.745 101.985 133.875C102.075 134.005 102.18 134.11 102.3 134.19C102.42 134.26 102.54 134.31 102.66 134.34C102.78 134.37 102.87 134.395 102.93 134.415V132.315ZM103.92 139.08C104.07 139.05 104.22 139.01 104.37 138.96C104.53 138.9 104.67 138.825 104.79 138.735C104.91 138.645 105.005 138.54 105.075 138.42C105.155 138.29 105.195 138.14 105.195 137.97C105.195 137.81 105.165 137.675 105.105 137.565C105.055 137.455 104.985 137.365 104.895 137.295C104.805 137.215 104.7 137.15 104.58 137.1C104.46 137.04 104.335 136.985 104.205 136.935L103.92 136.83V139.08ZM115.555 134.565H116.29C116.5 134.565 116.705 134.55 116.905 134.52C117.105 134.49 117.285 134.435 117.445 134.355C117.615 134.265 117.75 134.145 117.85 133.995C117.95 133.835 118 133.63 118 133.38C118 133.06 117.87 132.795 117.61 132.585C117.36 132.375 117.05 132.27 116.68 132.27C116.33 132.27 116.04 132.365 115.81 132.555C115.58 132.745 115.43 132.98 115.36 133.26L112.885 132.75C113.005 132.29 113.185 131.9 113.425 131.58C113.665 131.25 113.95 130.985 114.28 130.785C114.61 130.585 114.975 130.44 115.375 130.35C115.785 130.25 116.215 130.2 116.665 130.2C117.135 130.2 117.585 130.26 118.015 130.38C118.455 130.49 118.84 130.67 119.17 130.92C119.5 131.16 119.76 131.465 119.95 131.835C120.15 132.205 120.25 132.645 120.25 133.155C120.25 133.745 120.095 134.25 119.785 134.67C119.475 135.09 119.025 135.36 118.435 135.48V135.525C118.755 135.565 119.035 135.66 119.275 135.81C119.525 135.96 119.735 136.145 119.905 136.365C120.075 136.585 120.205 136.835 120.295 137.115C120.385 137.395 120.43 137.69 120.43 138C120.43 138.53 120.325 138.995 120.115 139.395C119.915 139.795 119.64 140.13 119.29 140.4C118.95 140.66 118.545 140.855 118.075 140.985C117.615 141.115 117.125 141.18 116.605 141.18C115.655 141.18 114.835 140.96 114.145 140.52C113.465 140.08 113.015 139.385 112.795 138.435L115.165 137.88C115.245 138.26 115.405 138.56 115.645 138.78C115.895 139 116.26 139.11 116.74 139.11C117.23 139.11 117.59 138.985 117.82 138.735C118.06 138.475 118.18 138.145 118.18 137.745C118.18 137.445 118.115 137.215 117.985 137.055C117.865 136.885 117.705 136.76 117.505 136.68C117.305 136.6 117.08 136.555 116.83 136.545C116.58 136.525 116.33 136.515 116.08 136.515H115.555V134.565ZM121.687 135.69C121.687 135.06 121.742 134.42 121.852 133.77C121.972 133.12 122.177 132.53 122.467 132C122.767 131.47 123.172 131.04 123.682 130.71C124.192 130.37 124.842 130.2 125.632 130.2C126.422 130.2 127.072 130.37 127.582 130.71C128.092 131.04 128.492 131.47 128.782 132C129.082 132.53 129.287 133.12 129.397 133.77C129.517 134.42 129.577 135.06 129.577 135.69C129.577 136.32 129.517 136.96 129.397 137.61C129.287 138.26 129.082 138.85 128.782 139.38C128.492 139.91 128.092 140.345 127.582 140.685C127.072 141.015 126.422 141.18 125.632 141.18C124.842 141.18 124.192 141.015 123.682 140.685C123.172 140.345 122.767 139.91 122.467 139.38C122.177 138.85 121.972 138.26 121.852 137.61C121.742 136.96 121.687 136.32 121.687 135.69ZM123.937 135.69C123.937 135.97 123.947 136.305 123.967 136.695C123.997 137.085 124.067 137.46 124.177 137.82C124.287 138.18 124.452 138.485 124.672 138.735C124.902 138.985 125.222 139.11 125.632 139.11C126.032 139.11 126.347 138.985 126.577 138.735C126.807 138.485 126.977 138.18 127.087 137.82C127.197 137.46 127.262 137.085 127.282 136.695C127.312 136.305 127.327 135.97 127.327 135.69C127.327 135.41 127.312 135.075 127.282 134.685C127.262 134.295 127.197 133.92 127.087 133.56C126.977 133.2 126.807 132.895 126.577 132.645C126.347 132.395 126.032 132.27 125.632 132.27C125.222 132.27 124.902 132.395 124.672 132.645C124.452 132.895 124.287 133.2 124.177 133.56C124.067 133.92 123.997 134.295 123.967 134.685C123.947 135.075 123.937 135.41 123.937 135.69ZM131.434 138.57H133.594L132.244 142.8H130.324L131.434 138.57ZM135.003 135.69C135.003 135.06 135.058 134.42 135.168 133.77C135.288 133.12 135.493 132.53 135.783 132C136.083 131.47 136.488 131.04 136.998 130.71C137.508 130.37 138.158 130.2 138.948 130.2C139.738 130.2 140.388 130.37 140.898 130.71C141.408 131.04 141.808 131.47 142.098 132C142.398 132.53 142.603 133.12 142.713 133.77C142.833 134.42 142.893 135.06 142.893 135.69C142.893 136.32 142.833 136.96 142.713 137.61C142.603 138.26 142.398 138.85 142.098 139.38C141.808 139.91 141.408 140.345 140.898 140.685C140.388 141.015 139.738 141.18 138.948 141.18C138.158 141.18 137.508 141.015 136.998 140.685C136.488 140.345 136.083 139.91 135.783 139.38C135.493 138.85 135.288 138.26 135.168 137.61C135.058 136.96 135.003 136.32 135.003 135.69ZM137.253 135.69C137.253 135.97 137.263 136.305 137.283 136.695C137.313 137.085 137.383 137.46 137.493 137.82C137.603 138.18 137.768 138.485 137.988 138.735C138.218 138.985 138.538 139.11 138.948 139.11C139.348 139.11 139.663 138.985 139.893 138.735C140.123 138.485 140.293 138.18 140.403 137.82C140.513 137.46 140.578 137.085 140.598 136.695C140.628 136.305 140.643 135.97 140.643 135.69C140.643 135.41 140.628 135.075 140.598 134.685C140.578 134.295 140.513 133.92 140.403 133.56C140.293 133.2 140.123 132.895 139.893 132.645C139.663 132.395 139.348 132.27 138.948 132.27C138.538 132.27 138.218 132.395 137.988 132.645C137.768 132.895 137.603 133.2 137.493 133.56C137.383 133.92 137.313 134.295 137.283 134.685C137.263 135.075 137.253 135.41 137.253 135.69ZM143.88 135.69C143.88 135.06 143.935 134.42 144.045 133.77C144.165 133.12 144.37 132.53 144.66 132C144.96 131.47 145.365 131.04 145.875 130.71C146.385 130.37 147.035 130.2 147.825 130.2C148.615 130.2 149.265 130.37 149.775 130.71C150.285 131.04 150.685 131.47 150.975 132C151.275 132.53 151.48 133.12 151.59 133.77C151.71 134.42 151.77 135.06 151.77 135.69C151.77 136.32 151.71 136.96 151.59 137.61C151.48 138.26 151.275 138.85 150.975 139.38C150.685 139.91 150.285 140.345 149.775 140.685C149.265 141.015 148.615 141.18 147.825 141.18C147.035 141.18 146.385 141.015 145.875 140.685C145.365 140.345 144.96 139.91 144.66 139.38C144.37 138.85 144.165 138.26 144.045 137.61C143.935 136.96 143.88 136.32 143.88 135.69ZM146.13 135.69C146.13 135.97 146.14 136.305 146.16 136.695C146.19 137.085 146.26 137.46 146.37 137.82C146.48 138.18 146.645 138.485 146.865 138.735C147.095 138.985 147.415 139.11 147.825 139.11C148.225 139.11 148.54 138.985 148.77 138.735C149 138.485 149.17 138.18 149.28 137.82C149.39 137.46 149.455 137.085 149.475 136.695C149.505 136.305 149.52 135.97 149.52 135.69C149.52 135.41 149.505 135.075 149.475 134.685C149.455 134.295 149.39 133.92 149.28 133.56C149.17 133.2 149 132.895 148.77 132.645C148.54 132.395 148.225 132.27 147.825 132.27C147.415 132.27 147.095 132.395 146.865 132.645C146.645 132.895 146.48 133.2 146.37 133.56C146.26 133.92 146.19 134.295 146.16 134.685C146.14 135.075 146.13 135.41 146.13 135.69ZM152.757 135.69C152.757 135.06 152.812 134.42 152.922 133.77C153.042 133.12 153.247 132.53 153.537 132C153.837 131.47 154.242 131.04 154.752 130.71C155.262 130.37 155.912 130.2 156.702 130.2C157.492 130.2 158.142 130.37 158.652 130.71C159.162 131.04 159.562 131.47 159.852 132C160.152 132.53 160.357 133.12 160.467 133.77C160.587 134.42 160.647 135.06 160.647 135.69C160.647 136.32 160.587 136.96 160.467 137.61C160.357 138.26 160.152 138.85 159.852 139.38C159.562 139.91 159.162 140.345 158.652 140.685C158.142 141.015 157.492 141.18 156.702 141.18C155.912 141.18 155.262 141.015 154.752 140.685C154.242 140.345 153.837 139.91 153.537 139.38C153.247 138.85 153.042 138.26 152.922 137.61C152.812 136.96 152.757 136.32 152.757 135.69ZM155.007 135.69C155.007 135.97 155.017 136.305 155.037 136.695C155.067 137.085 155.137 137.46 155.247 137.82C155.357 138.18 155.522 138.485 155.742 138.735C155.972 138.985 156.292 139.11 156.702 139.11C157.102 139.11 157.417 138.985 157.647 138.735C157.877 138.485 158.047 138.18 158.157 137.82C158.267 137.46 158.332 137.085 158.352 136.695C158.382 136.305 158.397 135.97 158.397 135.69C158.397 135.41 158.382 135.075 158.352 134.685C158.332 134.295 158.267 133.92 158.157 133.56C158.047 133.2 157.877 132.895 157.647 132.645C157.417 132.395 157.102 132.27 156.702 132.27C156.292 132.27 155.972 132.395 155.742 132.645C155.522 132.895 155.357 133.2 155.247 133.56C155.137 133.92 155.067 134.295 155.037 134.685C155.017 135.075 155.007 135.41 155.007 135.69Z" fill="white"/>
</g>
<defs>
<filter id="filter0_d" x="15" y="36" width="150" height="80" filterUnits="userSpaceOnUse" color-interpolation-filters="sRGB">
<feFlood flood-opacity="0" result="BackgroundImageFix"/>
<feColorMatrix in="SourceAlpha" type="matrix" values="0 0 0 0 0 0 0 0 0 0 0 0 0 0 0 0 0 0 127 0"/>
<feOffset dy="4"/>
<feGaussianBlur stdDeviation="7.5"/>
<feColorMatrix type="matrix" values="0 0 0 0 0.52549 0 0 0 0 0.568627 0 0 0 0 0.980392 0 0 0 0.15 0"/>
<feBlend mode="normal" in2="BackgroundImageFix" result="effect1_dropShadow"/>
<feBlend mode="normal" in="SourceGraphic" in2="effect1_dropShadow" result="shape"/>
</filter>
<filter id="filter1_d" x="75" y="105" width="110" height="70" filterUnits="userSpaceOnUse" color-interpolation-filters="sRGB">
<feFlood flood-opacity="0" result="BackgroundImageFix"/>
<feColorMatrix in="SourceAlpha" type="matrix" values="0 0 0 0 0 0 0 0 0 0 0 0 0 0 0 0 0 0 127 0"/>
<feOffset dy="4"/>
<feGaussianBlur stdDeviation="7.5"/>
<feColorMatrix type="matrix" values="0 0 0 0 0.870588 0 0 0 0 0.882353 0 0 0 0 1 0 0 0 0.2 0"/>
<feBlend mode="normal" in2="BackgroundImageFix" result="effect1_dropShadow"/>
<feBlend mode="normal" in="SourceGraphic" in2="effect1_dropShadow" result="shape"/>
</filter>
<clipPath id="clip0">
<rect width="1440" height="1848" fill="white" transform="translate(-1087 -822)"/>
</clipPath>
</defs>
</svg>
