<svg width="200" height="200" viewBox="0 0 200 200" fill="none" xmlns="http://www.w3.org/2000/svg">
<rect width="200" height="200" fill="#E5E5E5"/>
<g clip-path="url(#clip0)">
<rect width="1440" height="1848" transform="translate(-157 -822)" fill="white"/>
<rect width="200" height="200" rx="2" fill="#F9FAFF"/>
<circle cy="9" r="25" fill="#FFEFF9"/>
<path d="M-0.744121 1.4665L-4.29079 4.7465L-6.15746 2.53317L-0.450788 -2.2135H2.45588V16.6665H-0.744121V1.4665Z" fill="#FEA6DD"/>
<g filter="url(#filter0_d)">
<rect x="75.6924" y="38" width="95.3846" height="119.231" rx="16.9091" fill="#FFE3F5"/>
</g>
<rect x="87.6155" y="71.3848" width="71.5385" height="3.57692" fill="white"/>
<rect x="87.6155" y="84.5" width="71.5385" height="3.57692" fill="white"/>
<rect x="87.6155" y="97.6152" width="71.5385" height="3.57692" fill="white"/>
<rect x="87.6155" y="110.731" width="71.5385" height="3.57692" fill="white"/>
<rect x="87.6155" y="123.846" width="71.5385" height="3.57692" fill="white"/>
<rect x="87.6155" y="136.962" width="71.5385" height="3.57692" fill="white"/>
<g filter="url(#filter1_d)">
<rect x="28" y="120.269" width="95.3846" height="41.7308" rx="11.2727" fill="#FFA8DE"/>
</g>
<path d="M52.9954 137.527C52.7729 137.204 52.4724 136.971 52.0941 136.826C51.7268 136.67 51.3373 136.592 50.9256 136.592C50.6808 136.592 50.4415 136.62 50.2078 136.676C49.9853 136.731 49.7794 136.82 49.5902 136.943C49.4122 137.065 49.2675 137.226 49.1562 137.427C49.0449 137.616 48.9893 137.844 48.9893 138.111C48.9893 138.512 49.1284 138.818 49.4066 139.029C49.6848 139.241 50.0298 139.424 50.4415 139.58C50.8533 139.736 51.304 139.886 51.7936 140.031C52.2832 140.175 52.7339 140.376 53.1457 140.632C53.5574 140.888 53.9024 141.227 54.1806 141.65C54.4588 142.073 54.5979 142.635 54.5979 143.336C54.5979 143.97 54.4811 144.527 54.2474 145.005C54.0137 145.472 53.6965 145.862 53.2959 146.174C52.9064 146.485 52.4502 146.719 51.9271 146.875C51.4041 147.03 50.8533 147.108 50.2746 147.108C49.5401 147.108 48.8335 146.986 48.1547 146.741C47.4759 146.496 46.8916 146.085 46.402 145.506L47.9878 143.97C48.2437 144.36 48.5775 144.666 48.9893 144.888C49.4122 145.1 49.8573 145.205 50.3247 145.205C50.5695 145.205 50.8143 145.172 51.0591 145.105C51.304 145.038 51.5265 144.938 51.7268 144.805C51.9271 144.671 52.0885 144.504 52.2109 144.304C52.3333 144.093 52.3945 143.853 52.3945 143.586C52.3945 143.152 52.2554 142.818 51.9772 142.585C51.699 142.351 51.354 142.156 50.9423 142C50.5305 141.834 50.0799 141.678 49.5902 141.533C49.1006 141.388 48.6499 141.194 48.2381 140.949C47.8264 140.693 47.4814 140.359 47.2032 139.947C46.925 139.524 46.7859 138.962 46.7859 138.261C46.7859 137.649 46.9083 137.121 47.1531 136.676C47.4091 136.231 47.7374 135.863 48.138 135.574C48.5497 135.273 49.0171 135.051 49.5401 134.906C50.0632 134.762 50.5973 134.689 51.1426 134.689C51.7658 134.689 52.3667 134.784 52.9454 134.973C53.5352 135.162 54.0638 135.474 54.5311 135.908L52.9954 137.527ZM56.638 138.796H58.6411V146.808H56.638V138.796ZM56.3542 136.075C56.3542 135.752 56.4711 135.474 56.7048 135.24C56.9496 134.995 57.2556 134.873 57.6229 134.873C57.9901 134.873 58.2961 134.99 58.5409 135.223C58.7969 135.446 58.9249 135.73 58.9249 136.075C58.9249 136.42 58.7969 136.709 58.5409 136.943C58.2961 137.165 57.9901 137.277 57.6229 137.277C57.2556 137.277 56.9496 137.16 56.7048 136.926C56.4711 136.681 56.3542 136.397 56.3542 136.075ZM69.1867 138.796V146.09C69.1867 146.813 69.0977 147.464 68.9196 148.043C68.7416 148.633 68.4634 149.128 68.085 149.529C67.7178 149.94 67.2504 150.258 66.6829 150.48C66.1153 150.703 65.4421 150.814 64.6631 150.814C63.9175 150.814 63.2109 150.719 62.5432 150.53C61.8755 150.341 61.2579 149.996 60.6903 149.495L61.8922 147.859C62.2928 148.227 62.7101 148.51 63.1441 148.711C63.5781 148.911 64.0789 149.011 64.6464 149.011C65.1249 149.011 65.5255 148.944 65.8483 148.811C66.1821 148.677 66.4436 148.494 66.6328 148.26C66.8331 148.026 66.9722 147.743 67.0501 147.409C67.1391 147.086 67.1836 146.724 67.1836 146.324V145.74H67.1503C66.8609 146.129 66.477 146.424 65.9985 146.624C65.52 146.813 65.0303 146.908 64.5296 146.908C63.9286 146.908 63.3834 146.802 62.8937 146.591C62.4041 146.368 61.9812 146.073 61.6251 145.706C61.2801 145.339 61.0131 144.905 60.8239 144.404C60.6347 143.903 60.5401 143.369 60.5401 142.802C60.5401 142.212 60.6291 141.661 60.8072 141.149C60.9852 140.637 61.2467 140.192 61.5917 139.814C61.9367 139.435 62.3484 139.141 62.827 138.929C63.3166 138.707 63.873 138.595 64.4962 138.595C65.0637 138.595 65.5923 138.707 66.082 138.929C66.5716 139.152 66.9611 139.508 67.2504 139.997H67.2838V138.796H69.1867ZM64.9135 140.398C64.5574 140.398 64.2347 140.459 63.9453 140.582C63.656 140.693 63.4056 140.854 63.1942 141.066C62.9939 141.266 62.8325 141.516 62.7101 141.817C62.5988 142.106 62.5432 142.429 62.5432 142.785C62.5432 143.108 62.5988 143.408 62.7101 143.686C62.8325 143.965 62.9994 144.209 63.2109 144.421C63.4223 144.632 63.6727 144.799 63.962 144.922C64.2514 145.044 64.563 145.105 64.8968 145.105C65.264 145.105 65.5923 145.044 65.8816 144.922C66.1821 144.799 66.4325 144.638 66.6328 144.438C66.8442 144.226 67.0056 143.976 67.1169 143.686C67.2282 143.397 67.2838 143.085 67.2838 142.752C67.2838 142.051 67.0724 141.483 66.6495 141.049C66.2266 140.615 65.648 140.398 64.9135 140.398ZM71.4549 138.796H73.3578V140.081H73.3912C73.5804 139.68 73.8697 139.335 74.2592 139.046C74.6487 138.745 75.1773 138.595 75.845 138.595C76.3791 138.595 76.8298 138.684 77.1971 138.862C77.5754 139.04 77.8815 139.274 78.1151 139.563C78.3488 139.853 78.5158 140.187 78.6159 140.565C78.7161 140.943 78.7661 141.338 78.7661 141.75V146.808H76.7631V142.752C76.7631 142.529 76.7519 142.284 76.7297 142.017C76.7074 141.739 76.6462 141.483 76.5461 141.249C76.457 141.005 76.3124 140.804 76.1121 140.648C75.9118 140.481 75.6391 140.398 75.2941 140.398C74.9603 140.398 74.6765 140.454 74.4428 140.565C74.2203 140.676 74.0311 140.826 73.8753 141.016C73.7306 141.205 73.6249 141.422 73.5581 141.667C73.4914 141.911 73.458 142.167 73.458 142.434V146.808H71.4549V138.796ZM93.2904 146.808H91.3875V145.523H91.3541C91.1649 145.923 90.8756 146.274 90.4861 146.574C90.0966 146.864 89.568 147.008 88.9003 147.008C88.3662 147.008 87.9099 146.925 87.5316 146.758C87.1643 146.58 86.8639 146.346 86.6302 146.057C86.3965 145.756 86.2296 145.417 86.1294 145.038C86.0293 144.66 85.9792 144.265 85.9792 143.853V138.796H87.9823V142.852C87.9823 143.074 87.9934 143.325 88.0156 143.603C88.0379 143.87 88.0935 144.126 88.1826 144.371C88.2827 144.604 88.4274 144.805 88.6166 144.972C88.8169 145.128 89.0951 145.205 89.4512 145.205C89.785 145.205 90.0632 145.15 90.2858 145.038C90.5195 144.927 90.7087 144.777 90.8533 144.588C91.0091 144.399 91.1204 144.182 91.1872 143.937C91.254 143.692 91.2873 143.436 91.2873 143.169V138.796H93.2904V146.808ZM95.5642 138.796H97.4671V139.997H97.5005C97.7899 139.508 98.1793 139.152 98.669 138.929C99.1586 138.707 99.6872 138.595 100.255 138.595C100.867 138.595 101.418 138.707 101.907 138.929C102.397 139.141 102.814 139.435 103.159 139.814C103.504 140.192 103.766 140.637 103.944 141.149C104.122 141.661 104.211 142.212 104.211 142.802C104.211 143.392 104.116 143.942 103.927 144.454C103.738 144.966 103.471 145.411 103.126 145.79C102.792 146.168 102.386 146.468 101.907 146.691C101.429 146.902 100.906 147.008 100.338 147.008C99.9599 147.008 99.626 146.969 99.3367 146.891C99.0473 146.813 98.7914 146.713 98.5688 146.591C98.3463 146.468 98.1571 146.34 98.0013 146.207C97.8455 146.062 97.7175 145.923 97.6174 145.79H97.5673V150.614H95.5642V138.796ZM102.208 142.802C102.208 142.49 102.152 142.19 102.041 141.9C101.941 141.611 101.785 141.355 101.573 141.132C101.373 140.91 101.128 140.732 100.839 140.598C100.55 140.465 100.221 140.398 99.8541 140.398C99.4869 140.398 99.1586 140.465 98.8693 140.598C98.58 140.732 98.3296 140.91 98.1181 141.132C97.9178 141.355 97.762 141.611 97.6508 141.9C97.5506 142.19 97.5005 142.49 97.5005 142.802C97.5005 143.113 97.5506 143.414 97.6508 143.703C97.762 143.992 97.9178 144.248 98.1181 144.471C98.3296 144.694 98.58 144.872 98.8693 145.005C99.1586 145.139 99.4869 145.205 99.8541 145.205C100.221 145.205 100.55 145.139 100.839 145.005C101.128 144.872 101.373 144.694 101.573 144.471C101.785 144.248 101.941 143.992 102.041 143.703C102.152 143.414 102.208 143.113 102.208 142.802Z" fill="white"/>
<path d="M88.6038 52.8312H91.8707C92.3 52.8312 92.7054 52.8749 93.0869 52.9623C93.4764 53.0418 93.8142 53.1809 94.1004 53.3796C94.3945 53.5704 94.625 53.8327 94.7919 54.1666C94.9668 54.4924 95.0542 54.9018 95.0542 55.3946C95.0542 55.9908 94.8992 56.4995 94.5892 56.9208C94.2792 57.3341 93.8261 57.5964 93.23 57.7077L95.3761 61.2727H93.1465L91.3819 57.8985H90.4638V61.2727H88.6038V52.8312ZM90.4638 56.3246H91.5607C91.7277 56.3246 91.9025 56.3207 92.0854 56.3127C92.2761 56.2968 92.447 56.261 92.5981 56.2054C92.7491 56.1418 92.8723 56.0464 92.9677 55.9192C93.071 55.7921 93.1227 55.6132 93.1227 55.3827C93.1227 55.1681 93.079 54.9972 92.9915 54.87C92.9041 54.7428 92.7928 54.6474 92.6577 54.5839C92.5225 54.5123 92.3675 54.4646 92.1927 54.4408C92.0178 54.4169 91.8469 54.405 91.68 54.405H90.4638V56.3246ZM101.593 60.2712C101.307 60.6368 100.945 60.919 100.508 61.1177C100.071 61.3164 99.618 61.4158 99.149 61.4158C98.7039 61.4158 98.2826 61.3442 97.8852 61.2012C97.4957 61.0581 97.1539 60.8554 96.8598 60.5931C96.5737 60.3228 96.3471 60.0009 96.1802 59.6273C96.0133 59.2537 95.9298 58.8364 95.9298 58.3754C95.9298 57.9144 96.0133 57.4971 96.1802 57.1235C96.3471 56.7499 96.5737 56.4319 96.8598 56.1696C97.1539 55.8994 97.4957 55.6927 97.8852 55.5496C98.2826 55.4066 98.7039 55.335 99.149 55.335C99.5624 55.335 99.936 55.4066 100.27 55.5496C100.612 55.6927 100.898 55.8994 101.128 56.1696C101.367 56.4319 101.55 56.7499 101.677 57.1235C101.804 57.4971 101.868 57.9144 101.868 58.3754V58.9358H97.7183C97.7898 59.2776 97.9448 59.5518 98.1833 59.7585C98.4217 59.9572 98.7158 60.0566 99.0656 60.0566C99.3597 60.0566 99.6061 59.993 99.8048 59.8658C100.011 59.7307 100.19 59.5598 100.341 59.3531L101.593 60.2712ZM100.079 57.7196C100.087 57.4176 99.9876 57.1592 99.781 56.9446C99.5743 56.73 99.308 56.6227 98.9821 56.6227C98.7834 56.6227 98.6085 56.6545 98.4575 56.7181C98.3065 56.7817 98.1753 56.8651 98.064 56.9685C97.9607 57.0639 97.8772 57.1791 97.8137 57.3142C97.758 57.4414 97.7262 57.5766 97.7183 57.7196H100.079ZM106.234 57.1831C105.972 56.8572 105.626 56.6942 105.197 56.6942C105.046 56.6942 104.899 56.73 104.755 56.8016C104.612 56.8731 104.541 56.9963 104.541 57.1712C104.541 57.3142 104.612 57.4216 104.755 57.4931C104.907 57.5567 105.093 57.6163 105.316 57.6719C105.546 57.7196 105.789 57.7753 106.043 57.8389C106.305 57.8945 106.548 57.9859 106.77 58.1131C107.001 58.2403 107.188 58.4151 107.331 58.6377C107.482 58.8523 107.557 59.1424 107.557 59.5081C107.557 59.8817 107.474 60.1917 107.307 60.4381C107.148 60.6766 106.941 60.8713 106.687 61.0223C106.433 61.1654 106.147 61.2648 105.829 61.3204C105.511 61.384 105.197 61.4158 104.887 61.4158C104.481 61.4158 104.072 61.3601 103.659 61.2489C103.245 61.1296 102.895 60.923 102.609 60.6289L103.694 59.4246C103.861 59.6313 104.044 59.7903 104.243 59.9016C104.449 60.0049 104.688 60.0566 104.958 60.0566C105.165 60.0566 105.352 60.0287 105.519 59.9731C105.685 59.9095 105.769 59.7982 105.769 59.6392C105.769 59.4882 105.693 59.3769 105.542 59.3054C105.399 59.2259 105.213 59.1623 104.982 59.1146C104.759 59.059 104.517 59.0033 104.255 58.9477C104 58.8841 103.758 58.7927 103.527 58.6735C103.305 58.5542 103.118 58.3873 102.967 58.1727C102.824 57.9501 102.752 57.656 102.752 57.2904C102.752 56.9486 102.82 56.6545 102.955 56.4081C103.098 56.1617 103.281 55.959 103.504 55.8C103.734 55.641 103.996 55.5258 104.29 55.4542C104.585 55.3748 104.883 55.335 105.185 55.335C105.566 55.335 105.952 55.3907 106.341 55.5019C106.731 55.6132 107.061 55.8119 107.331 56.0981L106.234 57.1831ZM114.054 61.2727H112.337V60.4858H112.313C112.25 60.5971 112.166 60.7083 112.063 60.8196C111.968 60.9309 111.848 61.0303 111.705 61.1177C111.562 61.2051 111.399 61.2767 111.216 61.3323C111.034 61.388 110.835 61.4158 110.62 61.4158C110.167 61.4158 109.798 61.3482 109.511 61.2131C109.233 61.07 109.015 60.8753 108.856 60.6289C108.705 60.3824 108.601 60.0923 108.546 59.7585C108.498 59.4246 108.474 59.063 108.474 58.6735V55.4781H110.263V58.3158C110.263 58.4827 110.267 58.6576 110.275 58.8404C110.29 59.0153 110.326 59.1782 110.382 59.3292C110.445 59.4803 110.537 59.6035 110.656 59.6989C110.783 59.7942 110.962 59.8419 111.193 59.8419C111.423 59.8419 111.61 59.8022 111.753 59.7227C111.896 59.6353 112.003 59.524 112.075 59.3889C112.154 59.2458 112.206 59.0868 112.23 58.9119C112.254 58.7371 112.266 58.5542 112.266 58.3635V55.4781H114.054V61.2727ZM115.321 55.4781H117.038V56.265H117.061C117.117 56.1537 117.197 56.0424 117.3 55.9312C117.403 55.8199 117.526 55.7205 117.669 55.6331C117.813 55.5457 117.976 55.4741 118.158 55.4185C118.341 55.3628 118.54 55.335 118.754 55.335C119.16 55.335 119.518 55.4185 119.828 55.5854C120.146 55.7523 120.384 56.0146 120.543 56.3723C120.75 55.9987 121 55.7324 121.294 55.5735C121.588 55.4145 121.95 55.335 122.379 55.335C122.769 55.335 123.094 55.4026 123.357 55.5377C123.627 55.6649 123.838 55.8437 123.989 56.0742C124.148 56.2968 124.259 56.5631 124.323 56.8731C124.394 57.1751 124.43 57.501 124.43 57.8508V61.2727H122.641V57.8985C122.641 57.6282 122.582 57.3977 122.463 57.2069C122.351 57.0082 122.149 56.9089 121.854 56.9089C121.648 56.9089 121.473 56.9446 121.33 57.0162C121.195 57.0798 121.083 57.1712 120.996 57.2904C120.917 57.4096 120.857 57.5487 120.817 57.7077C120.785 57.8667 120.769 58.0336 120.769 58.2085V61.2727H118.981V58.2085C118.981 58.1051 118.977 57.978 118.969 57.8269C118.961 57.6759 118.933 57.5328 118.886 57.3977C118.838 57.2626 118.758 57.1473 118.647 57.0519C118.544 56.9566 118.389 56.9089 118.182 56.9089C117.952 56.9089 117.765 56.9526 117.622 57.04C117.479 57.1195 117.367 57.2308 117.288 57.3739C117.216 57.509 117.169 57.664 117.145 57.8389C117.121 58.0137 117.109 58.1966 117.109 58.3873V61.2727H115.321V55.4781ZM131.18 60.2712C130.894 60.6368 130.532 60.919 130.095 61.1177C129.658 61.3164 129.204 61.4158 128.736 61.4158C128.29 61.4158 127.869 61.3442 127.472 61.2012C127.082 61.0581 126.74 60.8554 126.446 60.5931C126.16 60.3228 125.934 60.0009 125.767 59.6273C125.6 59.2537 125.516 58.8364 125.516 58.3754C125.516 57.9144 125.6 57.4971 125.767 57.1235C125.934 56.7499 126.16 56.4319 126.446 56.1696C126.74 55.8994 127.082 55.6927 127.472 55.5496C127.869 55.4066 128.29 55.335 128.736 55.335C129.149 55.335 129.522 55.4066 129.856 55.5496C130.198 55.6927 130.484 55.8994 130.715 56.1696C130.953 56.4319 131.136 56.7499 131.263 57.1235C131.39 57.4971 131.454 57.9144 131.454 58.3754V58.9358H127.305C127.376 59.2776 127.531 59.5518 127.77 59.7585C128.008 59.9572 128.302 60.0566 128.652 60.0566C128.946 60.0566 129.193 59.993 129.391 59.8658C129.598 59.7307 129.777 59.5598 129.928 59.3531L131.18 60.2712ZM129.666 57.7196C129.673 57.4176 129.574 57.1592 129.367 56.9446C129.161 56.73 128.894 56.6227 128.569 56.6227C128.37 56.6227 128.195 56.6545 128.044 56.7181C127.893 56.7817 127.762 56.8651 127.651 56.9685C127.547 57.0639 127.464 57.1791 127.4 57.3142C127.344 57.4414 127.313 57.5766 127.305 57.7196H129.666Z" fill="white"/>
</g>
<defs>
<filter id="filter0_d" x="60.6924" y="27" width="125.385" height="149.231" filterUnits="userSpaceOnUse" color-interpolation-filters="sRGB">
<feFlood flood-opacity="0" result="BackgroundImageFix"/>
<feColorMatrix in="SourceAlpha" type="matrix" values="0 0 0 0 0 0 0 0 0 0 0 0 0 0 0 0 0 0 127 0"/>
<feOffset dy="4"/>
<feGaussianBlur stdDeviation="7.5"/>
<feColorMatrix type="matrix" values="0 0 0 0 0.996078 0 0 0 0 0.65098 0 0 0 0 0.866667 0 0 0 0.15 0"/>
<feBlend mode="normal" in2="BackgroundImageFix" result="effect1_dropShadow"/>
<feBlend mode="normal" in="SourceGraphic" in2="effect1_dropShadow" result="shape"/>
</filter>
<filter id="filter1_d" x="18" y="114.269" width="115.385" height="61.7308" filterUnits="userSpaceOnUse" color-interpolation-filters="sRGB">
<feFlood flood-opacity="0" result="BackgroundImageFix"/>
<feColorMatrix in="SourceAlpha" type="matrix" values="0 0 0 0 0 0 0 0 0 0 0 0 0 0 0 0 0 0 127 0"/>
<feOffset dy="4"/>
<feGaussianBlur stdDeviation="5"/>
<feColorMatrix type="matrix" values="0 0 0 0 0.996078 0 0 0 0 0.65098 0 0 0 0 0.866667 0 0 0 0.1 0"/>
<feBlend mode="normal" in2="BackgroundImageFix" result="effect1_dropShadow"/>
<feBlend mode="normal" in="SourceGraphic" in2="effect1_dropShadow" result="shape"/>
</filter>
<clipPath id="clip0">
<rect width="1440" height="1848" fill="white" transform="translate(-157 -822)"/>
</clipPath>
</defs>
</svg>
