<svg width="200" height="200" viewBox="0 0 200 200" fill="none" xmlns="http://www.w3.org/2000/svg">
<rect width="200" height="200" fill="#E5E5E5"/>
<g clip-path="url(#clip0)">
<rect width="1440" height="1848" transform="translate(-777 -822)" fill="white"/>
<rect width="200" height="200" fill="#F9FAFF"/>
<circle cx="-1" cy="9" r="25" fill="#DEF1FF"/>
<path d="M-2.97054 5.38675H-2.14388C-1.68165 5.38675 -1.23721 5.36008 -0.810544 5.30675C-0.366099 5.25342 0.0250119 5.13786 0.36279 4.96008C0.718345 4.7823 1.00279 4.52453 1.21612 4.18675C1.42946 3.84897 1.53612 3.39564 1.53612 2.82675C1.53612 2.09786 1.28723 1.5023 0.789456 1.04008C0.291679 0.57786 -0.35721 0.346748 -1.15721 0.346748C-1.79721 0.346748 -2.37499 0.533415 -2.89054 0.906749C-3.38832 1.2623 -3.75277 1.76897 -3.98388 2.42675L-7.37054 1.52008C-7.15721 0.826748 -6.85499 0.222304 -6.46388 -0.293251C-6.07277 -0.808807 -5.61054 -1.22658 -5.07721 -1.54658C-4.54388 -1.88436 -3.95721 -2.13325 -3.31721 -2.29325C-2.67721 -2.45325 -2.01054 -2.53325 -1.31721 -2.53325C-0.499432 -2.53325 0.273901 -2.42658 1.00279 -2.21325C1.73168 -1.99992 2.37168 -1.67992 2.92279 -1.25325C3.4739 -0.844363 3.90946 -0.319918 4.22946 0.320082C4.56723 0.942305 4.73612 1.67119 4.73612 2.50675C4.73612 3.52008 4.45168 4.42675 3.88279 5.22675C3.3139 6.00897 2.52279 6.52453 1.50946 6.77342V6.82675C2.71835 7.00453 3.6339 7.52008 4.25612 8.37341C4.87834 9.22675 5.18946 10.2401 5.18946 11.4134C5.18946 12.3201 5.01168 13.1201 4.65612 13.8134C4.31835 14.5067 3.85612 15.0934 3.26946 15.5734C2.68279 16.0356 1.99835 16.3912 1.21612 16.6401C0.451679 16.8712 -0.348321 16.9867 -1.18388 16.9867C-1.9661 16.9867 -2.70388 16.8979 -3.39721 16.7201C-4.09054 16.5601 -4.72165 16.3023 -5.29054 15.9467C-5.84165 15.5912 -6.32165 15.1379 -6.73054 14.5867C-7.13943 14.0179 -7.45054 13.3423 -7.66388 12.5601L-4.25054 11.6534C-4.05499 12.4356 -3.70832 13.0401 -3.21054 13.4667C-2.71277 13.8934 -2.03721 14.1067 -1.18388 14.1067C-0.75721 14.1067 -0.35721 14.0356 0.0161234 13.8934C0.407234 13.7512 0.745012 13.5556 1.02946 13.3067C1.33168 13.0401 1.56279 12.729 1.72279 12.3734C1.90057 12.0001 1.98946 11.5912 1.98946 11.1467C1.98946 10.5423 1.85612 10.0534 1.58946 9.68008C1.34057 9.28897 1.01168 8.99564 0.60279 8.80008C0.211679 8.58675 -0.232765 8.44453 -0.730543 8.37341C-1.22832 8.3023 -1.71721 8.26675 -2.19721 8.26675H-2.97054V5.38675Z" fill="#72C3FE"/>
<g filter="url(#filter0_d)">
<rect x="37" y="55" width="95.3846" height="119.231" rx="16.9091" fill="#ACDCFF"/>
</g>
<rect x="48.9231" y="88.3848" width="71.5385" height="3.57692" fill="white"/>
<rect x="48.9231" y="101.5" width="71.5385" height="3.57692" fill="white"/>
<rect x="48.9231" y="114.615" width="71.5385" height="3.57692" fill="white"/>
<rect x="48.9231" y="127.731" width="71.5385" height="3.57692" fill="white"/>
<rect x="48.9231" y="140.846" width="71.5385" height="3.57692" fill="white"/>
<rect x="48.9231" y="153.962" width="71.5385" height="3.57692" fill="white"/>
<path d="M49.9117 69.8312H53.1786C53.6078 69.8312 54.0132 69.8749 54.3948 69.9623C54.7842 70.0418 55.1221 70.1809 55.4082 70.3796C55.7023 70.5704 55.9328 70.8327 56.0998 71.1666C56.2746 71.4924 56.3621 71.9018 56.3621 72.3946C56.3621 72.9908 56.2071 73.4995 55.8971 73.9208C55.5871 74.3341 55.134 74.5964 54.5378 74.7077L56.684 78.2727H54.4544L52.6898 74.8985H51.7717V78.2727H49.9117V69.8312ZM51.7717 73.3246H52.8686C53.0355 73.3246 53.2104 73.3207 53.3932 73.3127C53.584 73.2968 53.7549 73.261 53.9059 73.2054C54.0569 73.1418 54.1801 73.0464 54.2755 72.9192C54.3789 72.7921 54.4305 72.6132 54.4305 72.3827C54.4305 72.1681 54.3868 71.9972 54.2994 71.87C54.2119 71.7428 54.1007 71.6474 53.9655 71.5839C53.8304 71.5123 53.6754 71.4646 53.5005 71.4408C53.3257 71.4169 53.1548 71.405 52.9878 71.405H51.7717V73.3246ZM62.9011 77.2712C62.615 77.6368 62.2533 77.919 61.8161 78.1177C61.379 78.3164 60.9259 78.4158 60.4569 78.4158C60.0118 78.4158 59.5905 78.3442 59.1931 78.2012C58.8036 78.0581 58.4618 77.8554 58.1677 77.5931C57.8815 77.3228 57.655 77.0009 57.4881 76.6273C57.3211 76.2537 57.2377 75.8364 57.2377 75.3754C57.2377 74.9144 57.3211 74.4971 57.4881 74.1235C57.655 73.7499 57.8815 73.4319 58.1677 73.1696C58.4618 72.8994 58.8036 72.6927 59.1931 72.5496C59.5905 72.4066 60.0118 72.335 60.4569 72.335C60.8702 72.335 61.2438 72.4066 61.5777 72.5496C61.9195 72.6927 62.2056 72.8994 62.4361 73.1696C62.6746 73.4319 62.8574 73.7499 62.9846 74.1235C63.1118 74.4971 63.1754 74.9144 63.1754 75.3754V75.9358H59.0261C59.0977 76.2776 59.2527 76.5518 59.4911 76.7585C59.7296 76.9572 60.0237 77.0566 60.3734 77.0566C60.6675 77.0566 60.914 76.993 61.1127 76.8658C61.3193 76.7307 61.4982 76.5598 61.6492 76.3531L62.9011 77.2712ZM61.3869 74.7196C61.3948 74.4176 61.2955 74.1592 61.0888 73.9446C60.8822 73.73 60.6159 73.6227 60.29 73.6227C60.0913 73.6227 59.9164 73.6545 59.7654 73.7181C59.6143 73.7817 59.4832 73.8651 59.3719 73.9685C59.2686 74.0639 59.1851 74.1791 59.1215 74.3142C59.0659 74.4414 59.0341 74.5766 59.0261 74.7196H61.3869ZM67.5418 74.1831C67.2795 73.8572 66.9337 73.6942 66.5045 73.6942C66.3535 73.6942 66.2064 73.73 66.0634 73.8016C65.9203 73.8731 65.8487 73.9963 65.8487 74.1712C65.8487 74.3142 65.9203 74.4216 66.0634 74.4931C66.2144 74.5567 66.4012 74.6163 66.6237 74.6719C66.8543 74.7196 67.0967 74.7753 67.351 74.8389C67.6134 74.8945 67.8558 74.9859 68.0784 75.1131C68.3089 75.2403 68.4957 75.4151 68.6387 75.6377C68.7898 75.8523 68.8653 76.1424 68.8653 76.5081C68.8653 76.8817 68.7818 77.1917 68.6149 77.4381C68.4559 77.6766 68.2493 77.8713 67.9949 78.0223C67.7405 78.1654 67.4544 78.2648 67.1364 78.3204C66.8185 78.384 66.5045 78.4158 66.1945 78.4158C65.7891 78.4158 65.3798 78.3601 64.9664 78.2489C64.5531 78.1296 64.2034 77.923 63.9172 77.6289L65.0022 76.4246C65.1691 76.6313 65.3519 76.7903 65.5507 76.9016C65.7573 77.0049 65.9958 77.0566 66.266 77.0566C66.4727 77.0566 66.6595 77.0287 66.8264 76.9731C66.9934 76.9095 67.0768 76.7982 67.0768 76.6392C67.0768 76.4882 67.0013 76.3769 66.8503 76.3054C66.7072 76.2259 66.5204 76.1623 66.2899 76.1146C66.0673 76.059 65.8249 76.0033 65.5626 75.9477C65.3082 75.8841 65.0658 75.7927 64.8353 75.6735C64.6127 75.5542 64.4259 75.3873 64.2749 75.1727C64.1318 74.9501 64.0603 74.656 64.0603 74.2904C64.0603 73.9486 64.1278 73.6545 64.263 73.4081C64.406 73.1617 64.5889 72.959 64.8114 72.8C65.0419 72.641 65.3043 72.5258 65.5984 72.4542C65.8925 72.3748 66.1905 72.335 66.4926 72.335C66.8741 72.335 67.2596 72.3907 67.6491 72.5019C68.0386 72.6132 68.3685 72.8119 68.6387 73.0981L67.5418 74.1831ZM75.3621 78.2727H73.6451V77.4858H73.6213C73.5577 77.5971 73.4742 77.7083 73.3709 77.8196C73.2755 77.9309 73.1563 78.0303 73.0132 78.1177C72.8701 78.2051 72.7072 78.2767 72.5244 78.3323C72.3415 78.388 72.1428 78.4158 71.9282 78.4158C71.4751 78.4158 71.1055 78.3482 70.8194 78.2131C70.5412 78.07 70.3226 77.8753 70.1636 77.6289C70.0126 77.3824 69.9092 77.0923 69.8536 76.7585C69.8059 76.4246 69.7821 76.063 69.7821 75.6735V72.4781H71.5705V75.3158C71.5705 75.4827 71.5745 75.6576 71.5824 75.8404C71.5983 76.0153 71.6341 76.1782 71.6897 76.3292C71.7533 76.4803 71.8447 76.6035 71.964 76.6989C72.0912 76.7942 72.27 76.8419 72.5005 76.8419C72.731 76.8419 72.9178 76.8022 73.0609 76.7227C73.204 76.6353 73.3113 76.524 73.3828 76.3889C73.4623 76.2458 73.514 76.0868 73.5378 75.9119C73.5617 75.7371 73.5736 75.5542 73.5736 75.3635V72.4781H75.3621V78.2727ZM76.6285 72.4781H78.3454V73.265H78.3693C78.4249 73.1537 78.5044 73.0424 78.6077 72.9312C78.7111 72.8199 78.8343 72.7205 78.9774 72.6331C79.1204 72.5457 79.2834 72.4741 79.4662 72.4185C79.649 72.3628 79.8477 72.335 80.0624 72.335C80.4677 72.335 80.8254 72.4185 81.1354 72.5854C81.4534 72.7523 81.6918 73.0146 81.8508 73.3723C82.0575 72.9987 82.3079 72.7324 82.602 72.5735C82.8961 72.4145 83.2577 72.335 83.687 72.335C84.0765 72.335 84.4024 72.4026 84.6647 72.5377C84.9349 72.6649 85.1456 72.8437 85.2966 73.0742C85.4556 73.2968 85.5668 73.5631 85.6304 73.8731C85.702 74.1751 85.7377 74.501 85.7377 74.8508V78.2727H83.9493V74.8985C83.9493 74.6282 83.8897 74.3977 83.7704 74.2069C83.6591 74.0082 83.4565 73.9089 83.1624 73.9089C82.9557 73.9089 82.7808 73.9446 82.6377 74.0162C82.5026 74.0798 82.3913 74.1712 82.3039 74.2904C82.2244 74.4096 82.1648 74.5487 82.125 74.7077C82.0932 74.8667 82.0774 75.0336 82.0774 75.2085V78.2727H80.2889V75.2085C80.2889 75.1051 80.2849 74.978 80.277 74.8269C80.269 74.6759 80.2412 74.5328 80.1935 74.3977C80.1458 74.2626 80.0663 74.1473 79.955 74.0519C79.8517 73.9566 79.6967 73.9089 79.49 73.9089C79.2595 73.9089 79.0727 73.9526 78.9297 74.04C78.7866 74.1195 78.6753 74.2308 78.5958 74.3739C78.5243 74.509 78.4766 74.664 78.4527 74.8389C78.4289 75.0137 78.417 75.1966 78.417 75.3873V78.2727H76.6285V72.4781ZM92.4876 77.2712C92.2014 77.6368 91.8398 77.919 91.4026 78.1177C90.9654 78.3164 90.5123 78.4158 90.0434 78.4158C89.5982 78.4158 89.177 78.3442 88.7795 78.2012C88.39 78.0581 88.0482 77.8554 87.7541 77.5931C87.468 77.3228 87.2414 77.0009 87.0745 76.6273C86.9076 76.2537 86.8241 75.8364 86.8241 75.3754C86.8241 74.9144 86.9076 74.4971 87.0745 74.1235C87.2414 73.7499 87.468 73.4319 87.7541 73.1696C88.0482 72.8994 88.39 72.6927 88.7795 72.5496C89.177 72.4066 89.5982 72.335 90.0434 72.335C90.4567 72.335 90.8303 72.4066 91.1641 72.5496C91.5059 72.6927 91.7921 72.8994 92.0226 73.1696C92.2611 73.4319 92.4439 73.7499 92.5711 74.1235C92.6982 74.4971 92.7618 74.9144 92.7618 75.3754V75.9358H88.6126C88.6841 76.2776 88.8391 76.5518 89.0776 76.7585C89.3161 76.9572 89.6102 77.0566 89.9599 77.0566C90.254 77.0566 90.5004 76.993 90.6991 76.8658C90.9058 76.7307 91.0846 76.5598 91.2357 76.3531L92.4876 77.2712ZM90.9734 74.7196C90.9813 74.4176 90.882 74.1592 90.6753 73.9446C90.4686 73.73 90.2023 73.6227 89.8764 73.6227C89.6777 73.6227 89.5029 73.6545 89.3518 73.7181C89.2008 73.7817 89.0696 73.8651 88.9584 73.9685C88.855 74.0639 88.7716 74.1791 88.708 74.3142C88.6523 74.4414 88.6205 74.5766 88.6126 74.7196H90.9734Z" fill="white"/>
<g filter="url(#filter1_d)">
<path d="M102.001 33.3763V51.0006H162.201V39.5151C162.201 37.7725 160.616 37.3368 159.824 37.3368H133.685L125.566 31H104.377C102.634 31 102.067 32.5842 102.001 33.3763Z" fill="#C0E1F8"/>
<g filter="url(#filter2_d)">
<rect x="106.752" y="41.6934" width="50.6946" height="11.8816" rx="4.06352" fill="#F7F8FF"/>
</g>
<rect x="102" y="46.842" width="60.1999" height="31.6841" rx="4.06352" fill="#D2EDFF"/>
</g>
<path fill-rule="evenodd" clip-rule="evenodd" d="M132.763 53.9012C132.364 53.4294 131.636 53.4294 131.237 53.9012L123.868 62.6037C123.317 63.2535 123.779 64.2499 124.631 64.2499H128V69.9999C128 70.5522 128.448 70.9999 129 70.9999H135C135.552 70.9999 136 70.5522 136 69.9999V64.2499H139.369C140.221 64.2499 140.683 63.2535 140.132 62.6037L132.763 53.9012Z" fill="white"/>
</g>
<defs>
<filter id="filter0_d" x="22" y="44" width="125.385" height="149.231" filterUnits="userSpaceOnUse" color-interpolation-filters="sRGB">
<feFlood flood-opacity="0" result="BackgroundImageFix"/>
<feColorMatrix in="SourceAlpha" type="matrix" values="0 0 0 0 0 0 0 0 0 0 0 0 0 0 0 0 0 0 127 0"/>
<feOffset dy="4"/>
<feGaussianBlur stdDeviation="7.5"/>
<feColorMatrix type="matrix" values="0 0 0 0 0.447059 0 0 0 0 0.764706 0 0 0 0 0.996078 0 0 0 0.2 0"/>
<feBlend mode="normal" in2="BackgroundImageFix" result="effect1_dropShadow"/>
<feBlend mode="normal" in="SourceGraphic" in2="effect1_dropShadow" result="shape"/>
</filter>
<filter id="filter1_d" x="92" y="25" width="80.2006" height="67.5262" filterUnits="userSpaceOnUse" color-interpolation-filters="sRGB">
<feFlood flood-opacity="0" result="BackgroundImageFix"/>
<feColorMatrix in="SourceAlpha" type="matrix" values="0 0 0 0 0 0 0 0 0 0 0 0 0 0 0 0 0 0 127 0"/>
<feOffset dy="4"/>
<feGaussianBlur stdDeviation="5"/>
<feColorMatrix type="matrix" values="0 0 0 0 0.447059 0 0 0 0 0.764706 0 0 0 0 0.996078 0 0 0 0.15 0"/>
<feBlend mode="normal" in2="BackgroundImageFix" result="effect1_dropShadow"/>
<feBlend mode="normal" in="SourceGraphic" in2="effect1_dropShadow" result="shape"/>
</filter>
<filter id="filter2_d" x="98.6252" y="35.1917" width="66.9487" height="28.1356" filterUnits="userSpaceOnUse" color-interpolation-filters="sRGB">
<feFlood flood-opacity="0" result="BackgroundImageFix"/>
<feColorMatrix in="SourceAlpha" type="matrix" values="0 0 0 0 0 0 0 0 0 0 0 0 0 0 0 0 0 0 127 0"/>
<feOffset dy="1.62541"/>
<feGaussianBlur stdDeviation="4.06352"/>
<feColorMatrix type="matrix" values="0 0 0 0 0.339931 0 0 0 0 0.573777 0 0 0 0 0.741667 0 0 0 1 0"/>
<feBlend mode="normal" in2="BackgroundImageFix" result="effect1_dropShadow"/>
<feBlend mode="normal" in="SourceGraphic" in2="effect1_dropShadow" result="shape"/>
</filter>
<clipPath id="clip0">
<rect width="1440" height="1848" fill="white" transform="translate(-777 -822)"/>
</clipPath>
</defs>
</svg>
