<svg width="13" height="12" viewBox="0 0 13 12" fill="none" xmlns="http://www.w3.org/2000/svg">
<path d="M11.1936 0.408636C11.5202 -0.0367289 12.146 -0.133006 12.5914 0.193595C13.0367 0.520196 13.133 1.146 12.8064 1.59136L11.1936 0.408636ZM5.47307 11.5914C5.14647 12.0367 4.52067 12.133 4.0753 11.8064C3.62994 11.4798 3.53366 10.854 3.86026 10.4086L5.47307 11.5914ZM12.8064 1.59136L5.47307 11.5914L3.86026 10.4086L11.1936 0.408636L12.8064 1.59136Z" fill="#4FDDAA"/>
<path d="M1.80641 5.40864C1.4798 4.96327 0.854002 4.86699 0.408636 5.19359C-0.0367289 5.5202 -0.133006 6.146 0.193595 6.59136L1.80641 5.40864ZM3.86026 11.5914C4.18686 12.0367 4.81267 12.133 5.25803 11.8064C5.7034 11.4798 5.79967 10.854 5.47307 10.4086L3.86026 11.5914ZM0.193595 6.59136L3.86026 11.5914L5.47307 10.4086L1.80641 5.40864L0.193595 6.59136Z" fill="#4FDDAA"/>
</svg>
