<svg width="12" height="12" viewBox="0 0 12 12" fill="none" xmlns="http://www.w3.org/2000/svg">
<path d="M2 5C1.44772 5 1 5.44772 1 6C1 6.55228 1.44772 7 2 7V5ZM10.4837 7C11.036 7 11.4837 6.55228 11.4837 6C11.4837 5.44772 11.036 5 10.4837 5V7ZM2 7L10.4837 7V5L2 5V7Z" fill="#4961E4"/>
<path d="M5.24219 1.75781C5.24219 1.20553 5.6899 0.757812 6.24219 0.757813C6.79447 0.757812 7.24219 1.20553 7.24219 1.75781H5.24219ZM7.24219 10.2415C7.24219 10.7938 6.79447 11.2415 6.24219 11.2415C5.6899 11.2415 5.24219 10.7938 5.24219 10.2415H7.24219ZM7.24219 1.75781L7.24219 10.2415H5.24219L5.24219 1.75781H7.24219Z" fill="#4961E4"/>
</svg>
